{"glyphs":{"0":{"ha":853,"x_min":0,"x_max":0,"o":"m 72 596 b 426 992 72 853 206 992 b 781 596 647 992 781 853 l 781 376 b 426 -19 781 117 647 -19 b 72 376 206 -19 72 117 l 72 596 m 185 369 b 426 82 185 189 265 82 b 668 369 590 82 668 192 l 668 603 b 426 892 668 782 585 892 b 185 603 268 892 185 781 "},"1":{"ha":563,"x_min":0,"x_max":0,"o":"m 460 972 l 458 0 l 346 0 l 346 850 l 329 850 l 136 551 l 10 551 l 282 972 "},"2":{"ha":806,"x_min":0,"x_max":0,"o":"m 63 657 b 414 992 63 871 218 992 b 750 678 606 992 750 868 b 436 351 750 497 633 403 b 174 131 268 307 174 272 l 174 101 l 751 101 l 751 0 l 61 0 l 61 119 b 382 440 61 318 190 393 b 638 679 542 481 638 547 b 414 892 638 813 547 892 b 175 651 275 892 175 808 l 175 624 l 63 624 l 63 657 "},"3":{"ha":801,"x_min":0,"x_max":0,"o":"m 740 972 l 740 872 l 417 597 l 417 582 l 450 582 b 746 293 617 582 746 476 b 407 -19 746 107 603 -19 b 50 313 189 -19 50 104 l 50 358 l 164 358 l 164 313 b 407 82 164 163 257 82 b 633 294 546 82 633 175 b 411 493 633 428 535 493 l 274 493 l 274 600 l 588 869 l 72 869 l 72 972 "},"4":{"ha":829,"x_min":0,"x_max":0,"o":"m 649 972 l 649 299 l 815 299 l 815 197 l 649 197 l 649 0 l 535 0 l 535 197 l 21 197 l 21 294 l 464 972 m 142 299 l 535 299 l 535 869 l 518 869 "},"5":{"ha":800,"x_min":0,"x_max":0,"o":"m 724 972 l 724 871 l 200 871 l 200 524 l 217 524 b 453 654 246 579 308 654 b 749 332 617 654 749 532 b 404 -19 749 126 614 -19 b 56 308 196 -19 56 111 l 56 343 l 167 343 l 167 317 b 401 82 167 163 261 82 b 633 329 549 82 633 175 b 425 558 633 471 551 558 b 247 450 318 558 271 496 l 88 450 l 88 972 "},"6":{"ha":815,"x_min":0,"x_max":0,"o":"m 760 318 b 415 -19 760 117 613 -18 b 72 313 221 -19 72 113 l 72 650 b 424 992 72 860 210 992 b 751 690 633 992 751 861 l 638 690 b 424 892 638 811 567 892 b 185 660 274 892 185 806 l 185 524 l 201 524 b 444 647 233 579 303 647 b 760 318 622 647 760 514 m 417 557 b 185 318 279 557 185 461 b 417 82 185 174 279 82 b 647 318 553 82 647 174 b 417 557 647 461 554 557 "},"7":{"ha":751,"x_min":0,"x_max":0,"o":"m 732 972 l 732 875 l 314 0 l 188 0 l 603 869 l 18 869 l 18 972 "},"8":{"ha":803,"x_min":0,"x_max":0,"o":"m 68 731 b 401 992 68 882 199 992 b 736 731 604 992 736 882 b 565 511 736 603 643 538 l 565 494 b 753 258 643 479 753 407 b 401 -19 753 92 610 -19 b 50 258 194 -19 50 92 b 238 494 50 407 161 479 l 238 511 b 68 731 161 538 68 603 m 181 721 b 401 551 181 613 275 551 b 622 721 528 551 622 613 b 401 892 622 829 528 892 b 181 721 275 892 181 829 m 164 267 b 401 82 164 146 260 82 b 640 267 543 82 640 146 b 401 451 640 386 543 451 b 164 267 260 451 164 386 "},"9":{"ha":817,"x_min":0,"x_max":0,"o":"m 56 656 b 401 992 56 857 204 990 b 743 661 594 993 743 861 l 743 322 b 393 -19 743 113 606 -19 b 64 282 183 -19 64 111 l 178 282 b 393 82 178 163 249 82 b 631 313 543 82 631 167 l 631 449 l 614 449 b 371 326 583 394 513 326 b 56 656 194 326 56 460 m 400 415 b 631 656 538 415 631 511 b 400 892 631 800 536 892 b 169 656 263 892 169 799 b 400 415 169 511 263 415 "},"A":{"ha":843,"x_min":0,"x_max":0,"o":"m 508 972 l 825 0 l 706 0 l 626 247 l 215 247 l 138 0 l 17 0 l 333 972 m 596 349 l 429 871 l 413 871 l 246 349 "},"Á":{"ha":843,"x_min":0,"x_max":0,"o":"m 557 1222 l 447 1065 l 344 1065 l 424 1222 m 508 972 l 825 0 l 706 0 l 626 247 l 215 247 l 138 0 l 17 0 l 333 972 m 596 349 l 429 871 l 413 871 l 246 349 "},"Ă":{"ha":843,"x_min":0,"x_max":0,"o":"m 583 1222 l 583 1207 b 421 1054 583 1111 515 1054 b 258 1207 326 1054 258 1111 l 258 1222 l 346 1222 l 346 1215 b 421 1140 346 1172 371 1140 b 496 1215 471 1140 496 1172 l 496 1222 m 508 972 l 825 0 l 706 0 l 626 247 l 215 247 l 138 0 l 17 0 l 333 972 m 596 349 l 429 871 l 413 871 l 246 349 "},"Â":{"ha":843,"x_min":0,"x_max":0,"o":"m 428 1158 l 414 1158 l 333 1065 l 215 1065 l 354 1222 l 488 1222 l 626 1065 l 508 1065 m 508 972 l 825 0 l 706 0 l 626 247 l 215 247 l 138 0 l 17 0 l 333 972 m 596 349 l 429 871 l 413 871 l 246 349 "},"Ä":{"ha":843,"x_min":0,"x_max":0,"o":"m 204 1136 b 293 1224 204 1188 242 1224 b 383 1136 344 1224 383 1188 b 293 1049 383 1085 344 1049 b 204 1136 242 1049 204 1085 m 460 1136 b 549 1224 460 1188 497 1224 b 638 1136 600 1224 638 1188 b 549 1049 638 1085 600 1049 b 460 1136 497 1049 460 1085 m 508 972 l 825 0 l 706 0 l 626 247 l 215 247 l 138 0 l 17 0 l 333 972 m 596 349 l 429 871 l 413 871 l 246 349 "},"À":{"ha":843,"x_min":0,"x_max":0,"o":"m 501 1065 l 397 1065 l 282 1222 l 413 1222 m 508 972 l 825 0 l 706 0 l 626 247 l 215 247 l 138 0 l 17 0 l 333 972 m 596 349 l 429 871 l 413 871 l 246 349 "},"Ā":{"ha":843,"x_min":0,"x_max":0,"o":"m 618 1065 l 226 1065 l 226 1154 l 618 1154 m 508 972 l 825 0 l 706 0 l 626 247 l 215 247 l 138 0 l 17 0 l 333 972 m 596 349 l 429 871 l 413 871 l 246 349 "},"Ą":{"ha":843,"x_min":0,"x_max":0,"o":"m 878 -146 l 878 -228 l 799 -228 b 700 -135 742 -228 700 -196 b 708 -74 700 -115 704 -96 l 724 0 l 706 0 l 626 247 l 215 247 l 138 0 l 17 0 l 333 972 l 508 972 l 825 0 l 810 0 l 790 -90 b 788 -118 789 -104 788 -108 b 818 -146 788 -136 797 -146 m 596 349 l 429 871 l 413 871 l 246 349 "},"Å":{"ha":843,"x_min":0,"x_max":0,"o":"m 282 1164 b 421 1299 282 1242 342 1299 b 560 1164 500 1299 560 1243 b 421 1029 560 1085 499 1029 b 282 1164 343 1029 282 1086 m 361 1164 b 421 1103 361 1129 385 1103 b 482 1164 457 1103 482 1129 b 421 1225 482 1200 457 1225 b 361 1164 385 1225 361 1200 m 508 972 l 825 0 l 706 0 l 626 247 l 215 247 l 138 0 l 17 0 l 333 972 m 596 349 l 429 871 l 413 871 l 246 349 "},"Ǻ":{"ha":843,"x_min":0,"x_max":0,"o":"m 421 1029 b 282 1164 343 1029 282 1086 b 421 1299 282 1242 342 1299 l 429 1299 l 475 1389 l 610 1389 l 521 1261 b 560 1164 544 1238 560 1203 b 421 1029 560 1085 499 1029 m 421 1225 b 361 1164 385 1225 361 1200 b 421 1103 361 1129 385 1103 b 482 1164 457 1103 482 1129 b 421 1225 482 1200 457 1225 m 825 0 l 706 0 l 626 247 l 215 247 l 138 0 l 17 0 l 333 972 l 508 972 m 596 349 l 429 871 l 413 871 l 246 349 "},"Ã":{"ha":843,"x_min":0,"x_max":0,"o":"m 249 1185 b 346 1243 272 1219 300 1243 b 447 1181 388 1243 417 1221 b 494 1142 465 1156 474 1142 b 539 1172 517 1142 526 1153 l 575 1225 l 646 1174 l 597 1106 b 500 1047 574 1071 547 1047 b 399 1108 457 1047 428 1069 b 350 1147 379 1135 371 1147 b 307 1118 329 1147 319 1136 l 269 1065 l 200 1115 m 508 972 l 825 0 l 706 0 l 626 247 l 215 247 l 138 0 l 17 0 l 333 972 m 596 349 l 429 871 l 413 871 l 246 349 "},"Æ":{"ha":778,"x_min":0,"x_max":0,"o":"m 721 104 l 721 0 l 404 0 l 404 246 l 208 246 l 135 0 l 17 0 l 308 972 l 714 972 l 714 868 l 517 868 l 517 539 l 679 539 l 679 436 l 517 436 l 517 104 m 404 868 l 388 868 l 236 349 l 404 349 "},"Ǽ":{"ha":778,"x_min":0,"x_max":0,"o":"m 486 1065 l 383 1065 l 463 1222 l 596 1222 m 721 104 l 721 0 l 404 0 l 404 246 l 208 246 l 135 0 l 17 0 l 308 972 l 714 972 l 714 868 l 517 868 l 517 539 l 679 539 l 679 436 l 517 436 l 517 104 m 404 868 l 388 868 l 236 349 l 404 349 "},"B":{"ha":860,"x_min":0,"x_max":0,"o":"m 507 972 b 793 718 671 972 793 876 b 621 497 793 590 706 521 l 621 481 b 793 258 708 460 793 386 b 503 0 793 96 669 0 l 103 0 l 103 972 m 215 539 l 499 539 b 683 708 614 539 683 606 b 497 871 683 807 611 871 l 215 871 m 215 101 l 499 101 b 683 271 615 101 683 171 b 493 438 683 374 615 438 l 215 438 "},"C":{"ha":878,"x_min":0,"x_max":0,"o":"m 72 586 b 457 992 72 840 221 992 b 817 643 690 992 817 857 l 817 618 l 704 618 l 704 643 b 457 892 704 796 618 892 b 185 590 285 892 185 774 l 185 382 b 457 82 185 194 285 82 b 704 326 631 82 704 174 l 704 354 l 817 354 l 817 326 b 457 -19 817 113 686 -19 b 72 386 219 -19 72 126 l 72 586 "},"Ć":{"ha":878,"x_min":0,"x_max":0,"o":"m 593 1222 l 483 1065 l 381 1065 l 460 1222 m 72 586 b 457 992 72 840 221 992 b 817 643 690 992 817 857 l 817 618 l 704 618 l 704 643 b 457 892 704 796 618 892 b 185 590 285 892 185 774 l 185 382 b 457 82 185 194 285 82 b 704 326 631 82 704 174 l 704 354 l 817 354 l 817 326 b 457 -19 817 113 686 -19 b 72 386 219 -19 72 126 l 72 586 "},"Č":{"ha":878,"x_min":0,"x_max":0,"o":"m 661 1224 l 522 1067 l 389 1067 l 250 1224 l 368 1224 l 449 1131 l 463 1131 l 543 1224 m 72 586 b 457 992 72 840 221 992 b 817 643 690 992 817 857 l 817 618 l 704 618 l 704 643 b 457 892 704 796 618 892 b 185 590 285 892 185 774 l 185 382 b 457 82 185 194 285 82 b 704 326 631 82 704 174 l 704 354 l 817 354 l 817 326 b 457 -19 817 113 686 -19 b 72 386 219 -19 72 126 l 72 586 "},"Ç":{"ha":878,"x_min":0,"x_max":0,"o":"m 704 618 l 704 643 b 457 892 704 796 618 892 b 185 590 285 892 185 774 l 185 382 b 457 82 185 194 285 82 b 704 326 631 82 704 174 l 704 354 l 817 354 l 817 326 b 483 -19 817 121 696 -8 l 471 -85 l 479 -85 b 549 -57 492 -71 514 -57 b 657 -171 607 -57 657 -97 b 525 -296 657 -249 601 -296 b 400 -226 463 -296 424 -272 l 453 -175 b 521 -224 463 -204 486 -224 b 576 -169 551 -224 576 -203 b 528 -119 576 -137 557 -119 b 488 -137 510 -119 499 -125 l 388 -137 l 388 -129 l 411 -18 b 72 386 200 0 72 143 l 72 586 b 457 992 72 840 221 992 b 817 643 690 992 817 857 l 817 618 "},"Ċ":{"ha":878,"x_min":0,"x_max":0,"o":"m 367 1136 b 456 1224 367 1188 404 1224 b 546 1136 507 1224 546 1188 b 456 1049 546 1085 507 1049 b 367 1136 404 1049 367 1085 m 72 586 b 457 992 72 840 221 992 b 817 643 690 992 817 857 l 817 618 l 704 618 l 704 643 b 457 892 704 796 618 892 b 185 590 285 892 185 774 l 185 382 b 457 82 185 194 285 82 b 704 326 631 82 704 174 l 704 354 l 817 354 l 817 326 b 457 -19 817 113 686 -19 b 72 386 219 -19 72 126 l 72 586 "},"D":{"ha":872,"x_min":0,"x_max":0,"o":"m 406 972 b 800 582 656 972 800 853 l 800 390 b 406 0 800 119 656 0 l 103 0 l 103 972 m 215 101 l 404 101 b 686 383 603 101 686 182 l 686 589 b 404 871 686 790 599 871 l 215 871 "},"Ð":{"ha":872,"x_min":0,"x_max":0,"o":"m 406 972 b 800 582 656 972 800 853 l 800 390 b 406 0 800 119 656 0 l 103 0 l 103 443 l -12 443 l -12 538 l 103 538 l 103 972 l 406 972 m 686 589 b 404 871 686 790 599 871 l 215 871 l 215 538 l 410 538 l 410 443 l 215 443 l 215 101 l 404 101 b 686 383 603 101 686 182 "},"Ď":{"ha":872,"x_min":0,"x_max":0,"o":"m 619 1224 l 481 1067 l 347 1067 l 208 1224 l 326 1224 l 407 1131 l 421 1131 l 501 1224 m 406 972 b 800 582 656 972 800 853 l 800 390 b 406 0 800 119 656 0 l 103 0 l 103 972 m 215 101 l 404 101 b 686 383 603 101 686 182 l 686 589 b 404 871 686 790 599 871 l 215 871 "},"Đ":{"ha":872,"x_min":0,"x_max":0,"o":"m 406 972 b 800 582 656 972 800 853 l 800 390 b 406 0 800 119 656 0 l 103 0 l 103 443 l -12 443 l -12 538 l 103 538 l 103 972 l 406 972 m 686 589 b 404 871 686 790 599 871 l 215 871 l 215 538 l 410 538 l 410 443 l 215 443 l 215 101 l 404 101 b 686 383 603 101 686 182 "},"E":{"ha":776,"x_min":0,"x_max":0,"o":"m 713 972 l 713 871 l 215 871 l 215 539 l 674 539 l 674 438 l 215 438 l 215 101 l 719 101 l 719 0 l 103 0 l 103 972 "},"É":{"ha":776,"x_min":0,"x_max":0,"o":"m 553 1222 l 443 1065 l 340 1065 l 419 1222 m 713 972 l 713 871 l 215 871 l 215 539 l 674 539 l 674 438 l 215 438 l 215 101 l 719 101 l 719 0 l 103 0 l 103 972 "},"Ě":{"ha":776,"x_min":0,"x_max":0,"o":"m 622 1224 l 483 1067 l 350 1067 l 211 1224 l 329 1224 l 410 1131 l 424 1131 l 504 1224 m 713 972 l 713 871 l 215 871 l 215 539 l 674 539 l 674 438 l 215 438 l 215 101 l 719 101 l 719 0 l 103 0 l 103 972 "},"Ê":{"ha":776,"x_min":0,"x_max":0,"o":"m 424 1158 l 410 1158 l 329 1065 l 211 1065 l 350 1222 l 483 1222 l 622 1065 l 504 1065 m 713 972 l 713 871 l 215 871 l 215 539 l 674 539 l 674 438 l 215 438 l 215 101 l 719 101 l 719 0 l 103 0 l 103 972 "},"Ë":{"ha":776,"x_min":0,"x_max":0,"o":"m 199 1136 b 288 1224 199 1188 236 1224 b 378 1136 339 1224 378 1188 b 288 1049 378 1085 339 1049 b 199 1136 236 1049 199 1085 m 454 1136 b 543 1224 454 1188 492 1224 b 632 1136 594 1224 632 1188 b 543 1049 632 1085 594 1049 b 454 1136 492 1049 454 1085 m 713 972 l 713 871 l 215 871 l 215 539 l 674 539 l 674 438 l 215 438 l 215 101 l 719 101 l 719 0 l 103 0 l 103 972 "},"Ė":{"ha":776,"x_min":0,"x_max":0,"o":"m 326 1136 b 415 1224 326 1188 364 1224 b 506 1136 467 1224 506 1188 b 415 1049 506 1085 467 1049 b 326 1136 364 1049 326 1085 m 713 972 l 713 871 l 215 871 l 215 539 l 674 539 l 674 438 l 215 438 l 215 101 l 719 101 l 719 0 l 103 0 l 103 972 "},"È":{"ha":776,"x_min":0,"x_max":0,"o":"m 497 1065 l 393 1065 l 278 1222 l 408 1222 m 713 972 l 713 871 l 215 871 l 215 539 l 674 539 l 674 438 l 215 438 l 215 101 l 719 101 l 719 0 l 103 0 l 103 972 "},"Ē":{"ha":776,"x_min":0,"x_max":0,"o":"m 613 1065 l 221 1065 l 221 1154 l 613 1154 m 713 972 l 713 871 l 215 871 l 215 539 l 674 539 l 674 438 l 215 438 l 215 101 l 719 101 l 719 0 l 103 0 l 103 972 "},"Ę":{"ha":776,"x_min":0,"x_max":0,"o":"m 446 -90 b 443 -118 444 -104 443 -108 b 474 -146 443 -136 453 -146 l 533 -146 l 533 -228 l 454 -228 b 356 -135 397 -228 356 -196 b 364 -74 356 -115 360 -96 l 379 0 l 103 0 l 103 972 l 713 972 l 713 871 l 215 871 l 215 539 l 674 539 l 674 438 l 215 438 l 215 101 l 719 101 l 719 0 l 465 0 "},"F":{"ha":740,"x_min":0,"x_max":0,"o":"m 699 972 l 699 871 l 215 871 l 215 539 l 671 539 l 671 436 l 215 436 l 215 0 l 103 0 l 103 972 "},"G":{"ha":886,"x_min":0,"x_max":0,"o":"m 72 586 b 456 992 72 840 221 992 b 814 640 689 992 814 858 l 814 628 l 701 628 l 701 640 b 457 892 701 796 617 892 b 185 590 285 892 185 774 l 185 382 b 456 82 185 194 282 82 b 701 326 628 82 701 172 l 701 364 l 410 364 l 410 464 l 814 464 l 814 331 b 456 -19 814 110 682 -19 b 72 386 218 -19 72 126 "},"Ğ":{"ha":886,"x_min":0,"x_max":0,"o":"m 613 1222 l 613 1207 b 450 1054 613 1111 544 1054 b 288 1207 356 1054 288 1111 l 288 1222 l 375 1222 l 375 1215 b 450 1140 375 1172 400 1140 b 525 1215 500 1140 525 1172 l 525 1222 m 72 586 b 456 992 72 840 221 992 b 814 640 689 992 814 858 l 814 628 l 701 628 l 701 640 b 457 892 701 796 617 892 b 185 590 285 892 185 774 l 185 382 b 456 82 185 194 282 82 b 701 326 628 82 701 172 l 701 364 l 410 364 l 410 464 l 814 464 l 814 331 b 456 -19 814 110 682 -19 b 72 386 218 -19 72 126 "},"Ģ":{"ha":886,"x_min":0,"x_max":0,"o":"m 72 586 b 456 992 72 840 221 992 b 814 640 689 992 814 858 l 814 628 l 701 628 l 701 640 b 457 892 701 796 617 892 b 185 590 285 892 185 774 l 185 382 b 456 82 185 194 282 82 b 701 326 628 82 701 172 l 701 364 l 410 364 l 410 464 l 814 464 l 814 331 b 456 -19 814 110 682 -19 b 72 386 218 -19 72 126 m 357 -165 b 453 -69 357 -110 397 -69 b 549 -165 508 -69 549 -110 l 549 -290 b 443 -393 549 -354 506 -393 l 361 -393 l 361 -328 l 436 -328 b 475 -290 463 -328 475 -315 l 475 -256 b 450 -258 469 -257 463 -258 b 357 -165 397 -258 357 -218 "},"Ġ":{"ha":886,"x_min":0,"x_max":0,"o":"m 361 1136 b 450 1224 361 1188 399 1224 b 540 1136 501 1224 540 1188 b 450 1049 540 1085 501 1049 b 361 1136 399 1049 361 1085 m 72 586 b 456 992 72 840 221 992 b 814 640 689 992 814 858 l 814 628 l 701 628 l 701 640 b 457 892 701 796 617 892 b 185 590 285 892 185 774 l 185 382 b 456 82 185 194 282 82 b 701 326 628 82 701 172 l 701 364 l 410 364 l 410 464 l 814 464 l 814 331 b 456 -19 814 110 682 -19 b 72 386 218 -19 72 126 "},"H":{"ha":890,"x_min":0,"x_max":0,"o":"m 215 972 l 215 539 l 676 539 l 676 972 l 789 972 l 789 0 l 676 0 l 676 436 l 215 436 l 215 0 l 103 0 l 103 972 "},"Ħ":{"ha":890,"x_min":0,"x_max":0,"o":"m 872 713 l 789 713 l 789 0 l 676 0 l 676 436 l 215 436 l 215 0 l 103 0 l 103 713 l 19 713 l 19 806 l 103 806 l 103 972 l 215 972 l 215 806 l 676 806 l 676 972 l 789 972 l 789 806 l 872 806 m 676 713 l 215 713 l 215 539 l 676 539 "},"I":{"ha":318,"x_min":0,"x_max":0,"o":"m 215 972 l 215 0 l 103 0 l 103 972 "},"Ĳ":{"ha":794,"x_min":0,"x_max":0,"o":"m 210 972 l 210 504 l 97 504 l 97 972 m 697 972 l 697 292 b 406 -19 697 90 596 -19 b 97 292 214 -19 97 90 l 97 325 l 210 325 l 210 292 b 406 85 210 168 274 85 b 585 292 536 85 585 168 l 585 972 "},"Í":{"ha":318,"x_min":0,"x_max":0,"o":"m 294 1222 l 185 1065 l 82 1065 l 161 1222 m 215 972 l 215 0 l 103 0 l 103 972 "},"Î":{"ha":318,"x_min":0,"x_max":0,"o":"m 165 1158 l 151 1158 l 71 1065 l -47 1065 l 92 1222 l 225 1222 l 364 1065 l 246 1065 m 215 972 l 215 0 l 103 0 l 103 972 "},"Ï":{"ha":318,"x_min":0,"x_max":0,"o":"m -58 1136 b 31 1224 -58 1188 -21 1224 b 121 1136 82 1224 121 1188 b 31 1049 121 1085 82 1049 b -58 1136 -21 1049 -58 1085 m 197 1136 b 286 1224 197 1188 235 1224 b 375 1136 338 1224 375 1188 b 286 1049 375 1085 338 1049 b 197 1136 235 1049 197 1085 m 215 972 l 215 0 l 103 0 l 103 972 "},"İ":{"ha":318,"x_min":0,"x_max":0,"o":"m 69 1136 b 158 1224 69 1188 107 1224 b 249 1136 210 1224 249 1188 b 158 1049 249 1085 210 1049 b 69 1136 107 1049 69 1085 m 215 972 l 215 0 l 103 0 l 103 972 "},"Ì":{"ha":318,"x_min":0,"x_max":0,"o":"m 239 1065 l 135 1065 l 19 1222 l 150 1222 m 215 972 l 215 0 l 103 0 l 103 972 "},"Ī":{"ha":318,"x_min":0,"x_max":0,"o":"m 356 1065 l -36 1065 l -36 1154 l 356 1154 m 215 972 l 215 0 l 103 0 l 103 972 "},"Į":{"ha":318,"x_min":0,"x_max":0,"o":"m 269 -146 l 269 -228 l 190 -228 b 92 -135 133 -228 92 -196 b 100 -74 92 -115 96 -96 l 115 0 l 103 0 l 103 972 l 215 972 l 215 0 l 201 0 l 182 -90 b 179 -118 181 -104 179 -108 b 210 -146 179 -136 189 -146 "},"J":{"ha":746,"x_min":0,"x_max":0,"o":"m 650 292 b 358 -19 650 90 549 -19 b 50 292 168 -19 50 90 l 50 367 l 164 367 l 164 292 b 358 82 164 167 228 82 b 536 292 489 82 536 168 l 536 972 l 650 972 "},"K":{"ha":872,"x_min":0,"x_max":0,"o":"m 456 576 l 867 0 l 728 0 l 376 501 l 215 350 l 215 0 l 103 0 l 103 972 l 215 972 l 215 506 l 232 506 l 721 972 l 876 972 "},"Ķ":{"ha":872,"x_min":0,"x_max":0,"o":"m 456 576 l 867 0 l 728 0 l 376 501 l 215 350 l 215 0 l 103 0 l 103 972 l 215 972 l 215 506 l 232 506 l 721 972 l 876 972 m 450 -69 b 546 -165 506 -69 546 -110 l 546 -290 b 440 -393 546 -354 503 -393 l 358 -393 l 358 -328 l 433 -328 b 472 -290 460 -328 472 -315 l 472 -256 b 447 -258 467 -257 460 -258 b 354 -165 394 -258 354 -218 b 450 -69 354 -110 394 -69 "},"L":{"ha":743,"x_min":0,"x_max":0,"o":"m 215 972 l 215 101 l 718 101 l 718 0 l 103 0 l 103 972 "},"Ĺ":{"ha":743,"x_min":0,"x_max":0,"o":"m 294 1222 l 185 1065 l 82 1065 l 161 1222 m 215 972 l 215 101 l 718 101 l 718 0 l 103 0 l 103 972 "},"Ľ":{"ha":743,"x_min":0,"x_max":0,"o":"m 215 972 l 215 101 l 718 101 l 718 0 l 103 0 l 103 972 m 435 972 l 367 726 l 304 726 l 319 972 "},"Ļ":{"ha":743,"x_min":0,"x_max":0,"o":"m 215 972 l 215 101 l 718 101 l 718 0 l 103 0 l 103 972 m 325 -165 b 421 -69 325 -110 365 -69 b 517 -165 476 -69 517 -110 l 517 -290 b 411 -393 517 -354 474 -393 l 329 -393 l 329 -328 l 404 -328 b 443 -290 431 -328 443 -315 l 443 -256 b 418 -258 438 -257 431 -258 b 325 -165 365 -258 325 -218 "},"Ŀ":{"ha":743,"x_min":0,"x_max":0,"o":"m 215 972 l 215 101 l 718 101 l 718 0 l 103 0 l 103 972 m 432 486 b 528 582 432 542 474 582 b 624 486 583 582 624 542 b 528 390 624 431 583 390 b 432 486 474 390 432 431 "},"Ł":{"ha":861,"x_min":0,"x_max":0,"o":"m 288 972 l 288 557 l 374 600 l 419 508 l 288 440 l 288 107 l 771 107 l 771 0 l 174 0 l 174 382 l 88 339 l 40 432 l 174 499 l 174 972 "},"M":{"ha":1208,"x_min":0,"x_max":0,"o":"m 303 972 l 596 124 l 613 124 l 904 972 l 1106 972 l 1106 0 l 994 0 l 994 846 l 978 846 l 688 0 l 519 0 l 231 846 l 214 846 l 214 0 l 103 0 l 103 972 "},"N":{"ha":904,"x_min":0,"x_max":0,"o":"m 299 972 l 674 118 l 690 118 l 690 972 l 803 972 l 803 0 l 606 0 l 232 854 l 215 854 l 215 0 l 103 0 l 103 972 "},"Ń":{"ha":904,"x_min":0,"x_max":0,"o":"m 593 1222 l 483 1065 l 381 1065 l 460 1222 m 299 972 l 674 118 l 690 118 l 690 972 l 803 972 l 803 0 l 606 0 l 232 854 l 215 854 l 215 0 l 103 0 l 103 972 "},"Ň":{"ha":904,"x_min":0,"x_max":0,"o":"m 663 1224 l 524 1067 l 390 1067 l 251 1224 l 369 1224 l 450 1131 l 464 1131 l 544 1224 m 299 972 l 674 118 l 690 118 l 690 972 l 803 972 l 803 0 l 606 0 l 232 854 l 215 854 l 215 0 l 103 0 l 103 972 "},"Ņ":{"ha":904,"x_min":0,"x_max":0,"o":"m 299 972 l 674 118 l 690 118 l 690 972 l 803 972 l 803 0 l 606 0 l 232 854 l 215 854 l 215 0 l 103 0 l 103 972 m 360 -165 b 456 -69 360 -110 400 -69 b 551 -165 511 -69 551 -110 l 551 -290 b 446 -393 551 -354 508 -393 l 364 -393 l 364 -328 l 439 -328 b 478 -290 465 -328 478 -315 l 478 -256 b 453 -258 472 -257 465 -258 b 360 -165 400 -258 360 -218 "},"Ŋ":{"ha":904,"x_min":0,"x_max":0,"o":"m 803 972 l 803 -111 b 639 -278 803 -221 749 -278 l 435 -278 l 435 -182 l 615 -182 b 690 -106 668 -182 690 -154 l 690 0 l 606 0 l 232 854 l 215 854 l 215 0 l 103 0 l 103 972 l 299 972 l 674 118 l 690 118 l 690 972 "},"Ñ":{"ha":904,"x_min":0,"x_max":0,"o":"m 285 1185 b 382 1243 308 1219 336 1243 b 483 1181 424 1243 453 1221 b 531 1142 501 1156 510 1142 b 575 1172 553 1142 563 1153 l 611 1225 l 682 1174 l 633 1106 b 536 1047 610 1071 583 1047 b 435 1108 493 1047 464 1069 b 386 1147 415 1135 407 1147 b 343 1118 365 1147 356 1136 l 306 1065 l 236 1115 m 299 972 l 674 118 l 690 118 l 690 972 l 803 972 l 803 0 l 606 0 l 232 854 l 215 854 l 215 0 l 103 0 l 103 972 "},"O":{"ha":906,"x_min":0,"x_max":0,"o":"m 72 593 b 453 992 72 849 219 992 b 833 593 686 992 833 849 l 833 379 b 453 -19 833 121 686 -19 b 72 379 219 -19 72 121 l 72 593 m 185 374 b 453 82 185 192 281 82 b 719 374 626 82 719 194 l 719 599 b 453 892 719 779 621 892 b 185 599 282 892 185 776 "},"Ó":{"ha":906,"x_min":0,"x_max":0,"o":"m 589 1222 l 479 1065 l 376 1065 l 456 1222 m 72 593 b 453 992 72 849 219 992 b 833 593 686 992 833 849 l 833 379 b 453 -19 833 121 686 -19 b 72 379 219 -19 72 121 l 72 593 m 185 374 b 453 82 185 192 281 82 b 719 374 626 82 719 194 l 719 599 b 453 892 719 779 621 892 b 185 599 282 892 185 776 "},"Ô":{"ha":906,"x_min":0,"x_max":0,"o":"m 460 1158 l 446 1158 l 365 1065 l 247 1065 l 386 1222 l 519 1222 l 658 1065 l 540 1065 m 72 593 b 453 992 72 849 219 992 b 833 593 686 992 833 849 l 833 379 b 453 -19 833 121 686 -19 b 72 379 219 -19 72 121 l 72 593 m 185 374 b 453 82 185 192 281 82 b 719 374 626 82 719 194 l 719 599 b 453 892 719 779 621 892 b 185 599 282 892 185 776 "},"Ö":{"ha":906,"x_min":0,"x_max":0,"o":"m 236 1136 b 325 1224 236 1188 274 1224 b 415 1136 376 1224 415 1188 b 325 1049 415 1085 376 1049 b 236 1136 274 1049 236 1085 m 492 1136 b 581 1224 492 1188 529 1224 b 669 1136 632 1224 669 1188 b 581 1049 669 1085 632 1049 b 492 1136 529 1049 492 1085 m 72 593 b 453 992 72 849 219 992 b 833 593 686 992 833 849 l 833 379 b 453 -19 833 121 686 -19 b 72 379 219 -19 72 121 l 72 593 m 185 374 b 453 82 185 192 281 82 b 719 374 626 82 719 194 l 719 599 b 453 892 719 779 621 892 b 185 599 282 892 185 776 "},"Ò":{"ha":906,"x_min":0,"x_max":0,"o":"m 533 1065 l 429 1065 l 314 1222 l 444 1222 m 72 593 b 453 992 72 849 219 992 b 833 593 686 992 833 849 l 833 379 b 453 -19 833 121 686 -19 b 72 379 219 -19 72 121 l 72 593 m 185 374 b 453 82 185 192 281 82 b 719 374 626 82 719 194 l 719 599 b 453 892 719 779 621 892 b 185 599 282 892 185 776 "},"Ő":{"ha":906,"x_min":0,"x_max":0,"o":"m 500 1222 l 385 1065 l 283 1065 l 372 1222 m 681 1222 l 565 1065 l 464 1065 l 551 1222 m 72 593 b 453 992 72 849 219 992 b 833 593 686 992 833 849 l 833 379 b 453 -19 833 121 686 -19 b 72 379 219 -19 72 121 l 72 593 m 185 374 b 453 82 185 192 281 82 b 719 374 626 82 719 194 l 719 599 b 453 892 719 779 621 892 b 185 599 282 892 185 776 "},"Ō":{"ha":906,"x_min":0,"x_max":0,"o":"m 649 1065 l 257 1065 l 257 1154 l 649 1154 m 72 593 b 453 992 72 849 219 992 b 833 593 686 992 833 849 l 833 379 b 453 -19 833 121 686 -19 b 72 379 219 -19 72 121 l 72 593 m 185 374 b 453 82 185 192 281 82 b 719 374 626 82 719 194 l 719 599 b 453 892 719 779 621 892 b 185 599 282 892 185 776 "},"Ø":{"ha":906,"x_min":0,"x_max":0,"o":"m 660 943 b 833 593 769 881 833 761 l 833 379 b 453 -19 833 121 686 -19 b 346 -8 415 -19 379 -15 l 310 -119 l 213 -89 l 251 26 b 72 379 138 88 72 207 l 72 593 b 453 992 72 849 219 992 b 567 979 493 992 532 988 l 599 1075 l 693 1044 l 660 943 m 185 374 b 286 131 185 264 219 181 l 535 882 b 453 892 510 889 482 892 b 185 599 282 892 185 776 l 185 374 m 719 599 b 625 836 719 704 686 786 l 379 90 b 453 82 401 85 426 82 b 719 374 626 82 719 194 "},"Ǿ":{"ha":906,"x_min":0,"x_max":0,"o":"m 479 1065 l 376 1065 l 456 1222 l 589 1222 m 660 943 b 833 593 769 881 833 761 l 833 379 b 453 -19 833 121 686 -19 b 346 -8 415 -19 379 -15 l 310 -119 l 213 -89 l 251 26 b 72 379 138 88 72 207 l 72 593 b 453 992 72 849 219 992 b 567 979 493 992 532 988 l 599 1075 l 693 1044 l 660 943 m 185 374 b 286 131 185 264 219 181 l 535 882 b 453 892 510 889 482 892 b 185 599 282 892 185 776 l 185 374 m 719 599 b 625 836 719 704 686 786 l 379 90 b 453 82 401 85 426 82 b 719 374 626 82 719 194 "},"Õ":{"ha":906,"x_min":0,"x_max":0,"o":"m 281 1185 b 378 1243 304 1219 332 1243 b 479 1181 419 1243 449 1221 b 526 1142 497 1156 506 1142 b 571 1172 549 1142 558 1153 l 607 1225 l 678 1174 l 629 1106 b 532 1047 606 1071 579 1047 b 431 1108 489 1047 460 1069 b 382 1147 411 1135 403 1147 b 339 1118 361 1147 351 1136 l 301 1065 l 232 1115 m 72 593 b 453 992 72 849 219 992 b 833 593 686 992 833 849 l 833 379 b 453 -19 833 121 686 -19 b 72 379 219 -19 72 121 l 72 593 m 185 374 b 453 82 185 192 281 82 b 719 374 626 82 719 194 l 719 599 b 453 892 719 779 621 892 b 185 599 282 892 185 776 "},"Œ":{"ha":786,"x_min":0,"x_max":0,"o":"m 729 101 l 729 0 l 413 0 b 72 397 200 0 72 136 l 72 575 b 413 972 72 833 200 972 l 724 972 l 724 871 l 526 871 l 526 539 l 689 539 l 689 436 l 526 436 l 526 101 m 413 874 b 185 585 261 874 185 763 l 185 388 b 413 99 185 207 260 99 "},"P":{"ha":814,"x_min":0,"x_max":0,"o":"m 472 972 b 778 683 646 972 778 864 b 472 393 778 503 644 393 l 215 393 l 215 0 l 103 0 l 103 972 m 215 496 l 460 496 b 664 683 588 496 664 565 b 460 871 664 800 588 871 l 215 871 "},"Þ":{"ha":814,"x_min":0,"x_max":0,"o":"m 215 972 l 215 789 l 472 789 b 778 500 646 789 778 681 b 472 211 778 319 644 211 l 215 211 l 215 0 l 103 0 l 103 972 m 215 314 l 460 314 b 664 500 588 314 664 383 b 460 686 664 617 588 686 l 215 686 "},"Q":{"ha":906,"x_min":0,"x_max":0,"o":"m 453 992 b 833 593 686 992 833 849 l 833 379 b 508 -17 833 142 710 4 l 508 -82 b 547 -124 508 -110 522 -124 l 638 -124 l 638 -224 l 501 -224 b 396 -117 438 -224 396 -182 l 396 -17 b 72 379 196 6 72 143 l 72 593 b 453 992 72 849 219 992 m 719 599 b 453 892 719 779 621 892 b 185 599 282 892 185 776 l 185 374 b 453 82 185 192 281 82 b 719 374 626 82 719 194 "},"R":{"ha":854,"x_min":0,"x_max":0,"o":"m 806 688 b 563 408 806 531 704 431 l 783 0 l 658 0 l 447 403 l 215 403 l 215 0 l 103 0 l 103 972 l 500 972 b 806 688 674 972 806 865 m 215 504 l 488 504 b 692 688 615 504 692 572 b 488 869 692 803 615 869 l 215 869 "},"Ŕ":{"ha":854,"x_min":0,"x_max":0,"o":"m 454 1065 l 351 1065 l 431 1222 l 564 1222 m 806 688 b 563 408 806 531 704 431 l 783 0 l 658 0 l 447 403 l 215 403 l 215 0 l 103 0 l 103 972 l 500 972 b 806 688 674 972 806 865 m 215 504 l 488 504 b 692 688 615 504 692 572 b 488 869 692 803 615 869 l 215 869 "},"Ř":{"ha":854,"x_min":0,"x_max":0,"o":"m 361 1067 l 222 1224 l 340 1224 l 421 1131 l 435 1131 l 515 1224 l 633 1224 l 494 1067 m 806 688 b 563 408 806 531 704 431 l 783 0 l 658 0 l 447 403 l 215 403 l 215 0 l 103 0 l 103 972 l 500 972 b 806 688 674 972 806 865 m 215 504 l 488 504 b 692 688 615 504 692 572 b 488 869 692 803 615 869 l 215 869 "},"Ŗ":{"ha":854,"x_min":0,"x_max":0,"o":"m 806 688 b 563 408 806 531 704 431 l 783 0 l 658 0 l 447 403 l 215 403 l 215 0 l 103 0 l 103 972 l 500 972 b 806 688 674 972 806 865 m 215 504 l 488 504 b 692 688 615 504 692 572 b 488 869 692 803 615 869 l 215 869 m 432 -69 b 528 -165 488 -69 528 -110 l 528 -290 b 422 -393 528 -354 485 -393 l 340 -393 l 340 -328 l 415 -328 b 454 -290 442 -328 454 -315 l 454 -256 b 429 -258 449 -257 442 -258 b 336 -165 376 -258 336 -218 b 432 -69 336 -110 376 -69 "},"S":{"ha":849,"x_min":0,"x_max":0,"o":"m 426 992 b 774 697 624 992 774 888 l 774 642 l 663 642 l 663 690 b 424 892 663 829 556 892 b 213 729 307 892 213 831 b 426 556 213 618 297 586 l 494 539 b 778 267 667 499 778 429 b 436 -19 778 89 632 -19 b 58 339 199 -19 58 110 l 58 374 l 171 374 l 171 343 b 436 81 171 168 269 81 b 667 263 585 81 667 160 b 451 442 667 368 582 411 l 383 457 b 100 728 211 497 100 563 b 426 992 100 886 243 992 "},"Ś":{"ha":849,"x_min":0,"x_max":0,"o":"m 558 1222 l 449 1065 l 346 1065 l 425 1222 m 426 992 b 774 697 624 992 774 888 l 774 642 l 663 642 l 663 690 b 424 892 663 829 556 892 b 213 729 307 892 213 831 b 426 556 213 618 297 586 l 494 539 b 778 267 667 499 778 429 b 436 -19 778 89 632 -19 b 58 339 199 -19 58 110 l 58 374 l 171 374 l 171 343 b 436 81 171 168 269 81 b 667 263 585 81 667 160 b 451 442 667 368 582 411 l 383 457 b 100 728 211 497 100 563 b 426 992 100 886 243 992 "},"Š":{"ha":849,"x_min":0,"x_max":0,"o":"m 628 1224 l 489 1067 l 356 1067 l 217 1224 l 335 1224 l 415 1131 l 429 1131 l 510 1224 m 426 992 b 774 697 624 992 774 888 l 774 642 l 663 642 l 663 690 b 424 892 663 829 556 892 b 213 729 307 892 213 831 b 426 556 213 618 297 586 l 494 539 b 778 267 667 499 778 429 b 436 -19 778 89 632 -19 b 58 339 199 -19 58 110 l 58 374 l 171 374 l 171 343 b 436 81 171 168 269 81 b 667 263 585 81 667 160 b 451 442 667 368 582 411 l 383 457 b 100 728 211 497 100 563 b 426 992 100 886 243 992 "},"Ş":{"ha":849,"x_min":0,"x_max":0,"o":"m 778 267 b 471 -18 778 100 649 -6 l 458 -85 l 467 -85 b 536 -57 479 -71 501 -57 b 644 -171 594 -57 644 -97 b 513 -296 644 -249 589 -296 b 388 -226 450 -296 411 -272 l 440 -175 b 508 -224 450 -204 474 -224 b 564 -169 539 -224 564 -203 b 515 -119 564 -137 544 -119 b 475 -137 497 -119 486 -125 l 375 -137 l 375 -129 l 399 -18 b 58 339 183 -6 58 122 l 58 374 l 171 374 l 171 343 b 436 81 171 168 269 81 b 667 263 585 81 667 160 b 451 442 667 368 582 411 l 383 457 b 100 728 211 497 100 563 b 426 992 100 886 243 992 b 774 697 624 992 774 888 l 774 642 l 663 642 l 663 690 b 424 892 663 829 556 892 b 213 729 307 892 213 831 b 426 556 213 618 297 586 l 494 539 b 778 267 667 499 778 429 "},"Ș":{"ha":849,"x_min":0,"x_max":0,"o":"m 426 992 b 774 697 624 992 774 888 l 774 642 l 663 642 l 663 690 b 424 892 663 829 556 892 b 213 729 307 892 213 831 b 426 556 213 618 297 586 l 494 539 b 778 267 667 499 778 429 b 436 -19 778 89 632 -19 b 58 339 199 -19 58 110 l 58 374 l 171 374 l 171 343 b 436 81 171 168 269 81 b 667 263 585 81 667 160 b 451 442 667 368 582 411 l 383 457 b 100 728 211 497 100 563 b 426 992 100 886 243 992 m 344 -165 b 440 -69 344 -110 385 -69 b 536 -165 496 -69 536 -110 l 536 -290 b 431 -393 536 -354 493 -393 l 349 -393 l 349 -328 l 424 -328 b 463 -290 450 -328 463 -315 l 463 -256 b 438 -258 457 -257 450 -258 b 344 -165 385 -258 344 -218 "},"ẞ":{"ha":853,"x_min":0,"x_max":0,"o":"m 97 610 b 442 972 97 850 236 972 l 782 972 l 782 883 l 544 593 b 513 529 528 574 513 554 b 575 464 513 500 538 482 l 635 438 b 815 210 736 392 815 331 b 565 -19 815 82 725 -19 b 293 233 397 -19 293 85 l 407 233 b 565 82 407 149 460 82 b 707 208 650 82 707 139 b 593 339 707 281 643 315 l 519 372 b 403 519 439 408 403 456 b 486 681 403 579 440 626 l 647 871 l 442 871 b 210 615 313 871 210 803 l 210 0 l 97 0 "},"T":{"ha":808,"x_min":0,"x_max":0,"o":"m 785 972 l 785 871 l 461 871 l 461 0 l 349 0 l 349 871 l 24 871 l 24 972 "},"Ŧ":{"ha":808,"x_min":0,"x_max":0,"o":"m 461 871 l 461 538 l 615 538 l 615 443 l 461 443 l 461 0 l 349 0 l 349 443 l 193 443 l 193 538 l 349 538 l 349 871 l 24 871 l 24 972 l 785 972 l 785 871 "},"Ť":{"ha":808,"x_min":0,"x_max":0,"o":"m 610 1224 l 471 1067 l 338 1067 l 199 1224 l 317 1224 l 397 1131 l 411 1131 l 492 1224 m 785 972 l 785 871 l 461 871 l 461 0 l 349 0 l 349 871 l 24 871 l 24 972 "},"Ţ":{"ha":808,"x_min":0,"x_max":0,"o":"m 440 0 l 424 -85 l 432 -85 b 501 -57 444 -71 467 -57 b 610 -171 560 -57 610 -97 b 478 -296 610 -249 554 -296 b 353 -226 415 -296 376 -272 l 406 -175 b 474 -224 415 -204 439 -224 b 529 -169 504 -224 529 -203 b 481 -119 529 -137 510 -119 b 440 -137 463 -119 451 -125 l 340 -137 l 340 -129 l 367 0 l 349 0 l 349 871 l 24 871 l 24 972 l 785 972 l 785 871 l 461 871 l 461 0 "},"Ț":{"ha":808,"x_min":0,"x_max":0,"o":"m 785 972 l 785 871 l 461 871 l 461 0 l 349 0 l 349 871 l 24 871 l 24 972 m 310 -165 b 406 -69 310 -110 350 -69 b 501 -165 461 -69 501 -110 l 501 -290 b 396 -393 501 -354 458 -393 l 314 -393 l 314 -328 l 389 -328 b 428 -290 415 -328 428 -315 l 428 -256 b 403 -258 422 -257 415 -258 b 310 -165 350 -258 310 -218 "},"U":{"ha":907,"x_min":0,"x_max":0,"o":"m 210 972 l 210 322 b 454 82 210 163 300 82 b 699 322 608 82 699 163 l 699 972 l 811 972 l 811 325 b 454 -19 811 99 671 -19 b 97 325 238 -19 97 99 l 97 972 "},"Ú":{"ha":907,"x_min":0,"x_max":0,"o":"m 590 1222 l 481 1065 l 378 1065 l 457 1222 m 210 972 l 210 322 b 454 82 210 163 300 82 b 699 322 608 82 699 163 l 699 972 l 811 972 l 811 325 b 454 -19 811 99 671 -19 b 97 325 238 -19 97 99 l 97 972 "},"Ŭ":{"ha":907,"x_min":0,"x_max":0,"o":"m 617 1222 l 617 1207 b 454 1054 617 1111 549 1054 b 292 1207 360 1054 292 1111 l 292 1222 l 379 1222 l 379 1215 b 454 1140 379 1172 404 1140 b 529 1215 504 1140 529 1172 l 529 1222 m 210 972 l 210 322 b 454 82 210 163 300 82 b 699 322 608 82 699 163 l 699 972 l 811 972 l 811 325 b 454 -19 811 99 671 -19 b 97 325 238 -19 97 99 l 97 972 "},"Û":{"ha":907,"x_min":0,"x_max":0,"o":"m 461 1158 l 447 1158 l 367 1065 l 249 1065 l 388 1222 l 521 1222 l 660 1065 l 542 1065 m 210 972 l 210 322 b 454 82 210 163 300 82 b 699 322 608 82 699 163 l 699 972 l 811 972 l 811 325 b 454 -19 811 99 671 -19 b 97 325 238 -19 97 99 l 97 972 "},"Ü":{"ha":907,"x_min":0,"x_max":0,"o":"m 238 1136 b 326 1224 238 1188 275 1224 b 417 1136 378 1224 417 1188 b 326 1049 417 1085 378 1049 b 238 1136 275 1049 238 1085 m 493 1136 b 582 1224 493 1188 531 1224 b 671 1136 633 1224 671 1188 b 582 1049 671 1085 633 1049 b 493 1136 531 1049 493 1085 m 210 972 l 210 322 b 454 82 210 163 300 82 b 699 322 608 82 699 163 l 699 972 l 811 972 l 811 325 b 454 -19 811 99 671 -19 b 97 325 238 -19 97 99 l 97 972 "},"Ù":{"ha":907,"x_min":0,"x_max":0,"o":"m 535 1065 l 431 1065 l 315 1222 l 446 1222 m 210 972 l 210 322 b 454 82 210 163 300 82 b 699 322 608 82 699 163 l 699 972 l 811 972 l 811 325 b 454 -19 811 99 671 -19 b 97 325 238 -19 97 99 l 97 972 "},"Ű":{"ha":907,"x_min":0,"x_max":0,"o":"m 501 1222 l 386 1065 l 285 1065 l 374 1222 m 682 1222 l 567 1065 l 465 1065 l 553 1222 m 210 972 l 210 322 b 454 82 210 163 300 82 b 699 322 608 82 699 163 l 699 972 l 811 972 l 811 325 b 454 -19 811 99 671 -19 b 97 325 238 -19 97 99 l 97 972 "},"Ū":{"ha":907,"x_min":0,"x_max":0,"o":"m 650 1065 l 258 1065 l 258 1154 l 650 1154 m 210 972 l 210 322 b 454 82 210 163 300 82 b 699 322 608 82 699 163 l 699 972 l 811 972 l 811 325 b 454 -19 811 99 671 -19 b 97 325 238 -19 97 99 l 97 972 "},"Ų":{"ha":907,"x_min":0,"x_max":0,"o":"m 811 972 l 811 325 b 494 -18 811 113 688 -4 l 479 -90 b 476 -118 478 -104 476 -108 b 507 -146 476 -136 486 -146 l 567 -146 l 567 -228 l 488 -228 b 389 -135 431 -228 389 -196 b 397 -74 389 -115 393 -96 l 408 -18 b 97 325 218 -1 97 115 l 97 972 l 210 972 l 210 322 b 454 82 210 163 300 82 b 699 322 608 82 699 163 l 699 972 "},"Ů":{"ha":907,"x_min":0,"x_max":0,"o":"m 315 1164 b 454 1299 315 1242 375 1299 b 593 1164 533 1299 593 1243 b 454 1029 593 1085 532 1029 b 315 1164 376 1029 315 1086 m 394 1164 b 454 1103 394 1129 418 1103 b 515 1164 490 1103 515 1129 b 454 1225 515 1200 490 1225 b 394 1164 418 1225 394 1200 m 210 972 l 210 322 b 454 82 210 163 300 82 b 699 322 608 82 699 163 l 699 972 l 811 972 l 811 325 b 454 -19 811 99 671 -19 b 97 325 238 -19 97 99 l 97 972 "},"V":{"ha":840,"x_min":0,"x_max":0,"o":"m 138 972 l 413 110 l 429 110 l 703 972 l 822 972 l 506 0 l 335 0 l 19 972 "},"W":{"ha":1222,"x_min":0,"x_max":0,"o":"m 154 972 l 306 121 l 322 121 l 521 972 l 703 972 l 900 121 l 917 121 l 1068 972 l 1183 972 l 1007 0 l 818 0 l 619 851 l 603 851 l 404 0 l 217 0 l 40 972 "},"Ẃ":{"ha":1222,"x_min":0,"x_max":0,"o":"m 747 1222 l 638 1065 l 535 1065 l 614 1222 m 154 972 l 306 121 l 322 121 l 521 972 l 703 972 l 900 121 l 917 121 l 1068 972 l 1183 972 l 1007 0 l 818 0 l 619 851 l 603 851 l 404 0 l 217 0 l 40 972 "},"Ŵ":{"ha":1222,"x_min":0,"x_max":0,"o":"m 618 1158 l 604 1158 l 524 1065 l 406 1065 l 544 1222 l 678 1222 l 817 1065 l 699 1065 m 154 972 l 306 121 l 322 121 l 521 972 l 703 972 l 900 121 l 917 121 l 1068 972 l 1183 972 l 1007 0 l 818 0 l 619 851 l 603 851 l 404 0 l 217 0 l 40 972 "},"Ẅ":{"ha":1222,"x_min":0,"x_max":0,"o":"m 394 1136 b 483 1224 394 1188 432 1224 b 574 1136 535 1224 574 1188 b 483 1049 574 1085 535 1049 b 394 1136 432 1049 394 1085 m 650 1136 b 739 1224 650 1188 688 1224 b 828 1136 790 1224 828 1188 b 739 1049 828 1085 790 1049 b 650 1136 688 1049 650 1085 m 154 972 l 306 121 l 322 121 l 521 972 l 703 972 l 900 121 l 917 121 l 1068 972 l 1183 972 l 1007 0 l 818 0 l 619 851 l 603 851 l 404 0 l 217 0 l 40 972 "},"Ẁ":{"ha":1222,"x_min":0,"x_max":0,"o":"m 692 1065 l 588 1065 l 472 1222 l 603 1222 m 154 972 l 306 121 l 322 121 l 521 972 l 703 972 l 900 121 l 917 121 l 1068 972 l 1183 972 l 1007 0 l 818 0 l 619 851 l 603 851 l 404 0 l 217 0 l 40 972 "},"X":{"ha":863,"x_min":0,"x_max":0,"o":"m 169 972 l 422 574 l 440 574 l 693 972 l 824 972 l 524 499 l 524 482 l 828 0 l 697 0 l 440 407 l 422 407 l 165 0 l 35 0 l 340 482 l 340 499 l 39 972 "},"Y":{"ha":857,"x_min":0,"x_max":0,"o":"m 153 972 l 419 506 l 439 506 l 704 972 l 835 972 l 485 367 l 485 0 l 372 0 l 372 367 l 22 972 "},"Ý":{"ha":857,"x_min":0,"x_max":0,"o":"m 565 1222 l 456 1065 l 353 1065 l 432 1222 m 153 972 l 419 506 l 439 506 l 704 972 l 835 972 l 485 367 l 485 0 l 372 0 l 372 367 l 22 972 "},"Ŷ":{"ha":857,"x_min":0,"x_max":0,"o":"m 436 1158 l 422 1158 l 342 1065 l 224 1065 l 363 1222 l 496 1222 l 635 1065 l 517 1065 m 153 972 l 419 506 l 439 506 l 704 972 l 835 972 l 485 367 l 485 0 l 372 0 l 372 367 l 22 972 "},"Ÿ":{"ha":857,"x_min":0,"x_max":0,"o":"m 213 1136 b 301 1224 213 1188 250 1224 b 392 1136 353 1224 392 1188 b 301 1049 392 1085 353 1049 b 213 1136 250 1049 213 1085 m 468 1136 b 557 1224 468 1188 506 1224 b 646 1136 608 1224 646 1188 b 557 1049 646 1085 608 1049 b 468 1136 506 1049 468 1085 m 153 972 l 419 506 l 439 506 l 704 972 l 835 972 l 485 367 l 485 0 l 372 0 l 372 367 l 22 972 "},"Ỳ":{"ha":857,"x_min":0,"x_max":0,"o":"m 510 1065 l 406 1065 l 290 1222 l 421 1222 m 153 972 l 419 506 l 439 506 l 704 972 l 835 972 l 485 367 l 485 0 l 372 0 l 372 367 l 22 972 "},"Z":{"ha":806,"x_min":0,"x_max":0,"o":"m 743 972 l 743 878 l 196 101 l 754 101 l 754 0 l 57 0 l 57 96 l 606 872 l 72 872 l 72 972 "},"Ź":{"ha":806,"x_min":0,"x_max":0,"o":"m 539 1222 l 429 1065 l 326 1065 l 406 1222 m 743 972 l 743 878 l 196 101 l 754 101 l 754 0 l 57 0 l 57 96 l 606 872 l 72 872 l 72 972 "},"Ž":{"ha":806,"x_min":0,"x_max":0,"o":"m 608 1224 l 469 1067 l 336 1067 l 197 1224 l 315 1224 l 396 1131 l 410 1131 l 490 1224 m 743 972 l 743 878 l 196 101 l 754 101 l 754 0 l 57 0 l 57 96 l 606 872 l 72 872 l 72 972 "},"Ż":{"ha":806,"x_min":0,"x_max":0,"o":"m 313 1136 b 401 1224 313 1188 350 1224 b 492 1136 453 1224 492 1188 b 401 1049 492 1085 453 1049 b 313 1136 350 1049 313 1085 m 743 972 l 743 878 l 196 101 l 754 101 l 754 0 l 57 0 l 57 96 l 606 872 l 72 872 l 72 972 "},"a":{"ha":778,"x_min":0,"x_max":0,"o":"m 69 499 b 397 697 119 592 215 697 b 685 431 578 697 685 593 l 685 0 l 582 0 l 582 113 l 563 113 b 306 -19 519 43 449 -19 b 51 181 154 -19 51 60 b 279 378 51 303 144 365 l 579 407 l 579 436 b 392 607 579 538 511 607 b 160 449 274 607 200 538 l 69 499 m 160 182 b 322 71 160 115 225 71 b 579 307 469 71 579 160 l 579 318 l 300 292 b 160 182 214 283 160 247 "},"á":{"ha":778,"x_min":0,"x_max":0,"o":"m 524 972 l 417 792 l 314 792 l 393 972 m 69 499 b 397 697 119 592 215 697 b 685 431 578 697 685 593 l 685 0 l 582 0 l 582 113 l 563 113 b 306 -19 519 43 449 -19 b 51 181 154 -19 51 60 b 279 378 51 303 144 365 l 579 407 l 579 436 b 392 607 579 538 511 607 b 160 449 274 607 200 538 l 69 499 m 160 182 b 322 71 160 115 225 71 b 579 307 469 71 579 160 l 579 318 l 300 292 b 160 182 214 283 160 247 "},"ă":{"ha":778,"x_min":0,"x_max":0,"o":"m 551 972 l 551 938 b 389 781 551 839 485 781 b 226 938 293 781 226 839 l 226 972 l 314 972 l 314 944 b 389 867 314 899 339 867 b 464 944 439 867 464 899 l 464 972 m 69 499 b 397 697 119 592 215 697 b 685 431 578 697 685 593 l 685 0 l 582 0 l 582 113 l 563 113 b 306 -19 519 43 449 -19 b 51 181 154 -19 51 60 b 279 378 51 303 144 365 l 579 407 l 579 436 b 392 607 579 538 511 607 b 160 449 274 607 200 538 l 69 499 m 160 182 b 322 71 160 115 225 71 b 579 307 469 71 579 160 l 579 318 l 300 292 b 160 182 214 283 160 247 "},"â":{"ha":778,"x_min":0,"x_max":0,"o":"m 396 904 l 382 904 l 299 792 l 183 792 l 321 972 l 457 972 l 594 792 l 479 792 m 69 499 b 397 697 119 592 215 697 b 685 431 578 697 685 593 l 685 0 l 582 0 l 582 113 l 563 113 b 306 -19 519 43 449 -19 b 51 181 154 -19 51 60 b 279 378 51 303 144 365 l 579 407 l 579 436 b 392 607 579 538 511 607 b 160 449 274 607 200 538 l 69 499 m 160 182 b 322 71 160 115 225 71 b 579 307 469 71 579 160 l 579 318 l 300 292 b 160 182 214 283 160 247 "},"ä":{"ha":778,"x_min":0,"x_max":0,"o":"m 176 890 b 265 978 176 940 214 978 b 356 890 317 978 356 940 b 265 801 356 839 317 801 b 176 890 214 801 176 839 m 424 890 b 513 978 424 940 461 978 b 601 890 564 978 601 940 b 513 801 601 839 564 801 b 424 890 461 801 424 839 m 69 499 b 397 697 119 592 215 697 b 685 431 578 697 685 593 l 685 0 l 582 0 l 582 113 l 563 113 b 306 -19 519 43 449 -19 b 51 181 154 -19 51 60 b 279 378 51 303 144 365 l 579 407 l 579 436 b 392 607 579 538 511 607 b 160 449 274 607 200 538 l 69 499 m 160 182 b 322 71 160 115 225 71 b 579 307 469 71 579 160 l 579 318 l 300 292 b 160 182 214 283 160 247 "},"à":{"ha":778,"x_min":0,"x_max":0,"o":"m 468 792 l 364 792 l 249 972 l 376 972 m 69 499 b 397 697 119 592 215 697 b 685 431 578 697 685 593 l 685 0 l 582 0 l 582 113 l 563 113 b 306 -19 519 43 449 -19 b 51 181 154 -19 51 60 b 279 378 51 303 144 365 l 579 407 l 579 436 b 392 607 579 538 511 607 b 160 449 274 607 200 538 l 69 499 m 160 182 b 322 71 160 115 225 71 b 579 307 469 71 579 160 l 579 318 l 300 292 b 160 182 214 283 160 247 "},"ā":{"ha":778,"x_min":0,"x_max":0,"o":"m 585 792 l 193 792 l 193 881 l 585 881 m 69 499 b 397 697 119 592 215 697 b 685 431 578 697 685 593 l 685 0 l 582 0 l 582 113 l 563 113 b 306 -19 519 43 449 -19 b 51 181 154 -19 51 60 b 279 378 51 303 144 365 l 579 407 l 579 436 b 392 607 579 538 511 607 b 160 449 274 607 200 538 l 69 499 m 160 182 b 322 71 160 115 225 71 b 579 307 469 71 579 160 l 579 318 l 300 292 b 160 182 214 283 160 247 "},"ą":{"ha":778,"x_min":0,"x_max":0,"o":"m 744 -146 l 744 -228 l 665 -228 b 567 -135 608 -228 567 -196 b 575 -74 567 -115 571 -96 l 590 0 l 582 0 l 582 113 l 563 113 b 306 -19 519 43 449 -19 b 51 181 154 -19 51 60 b 279 378 51 303 144 365 l 579 407 l 579 436 b 392 607 579 538 511 607 b 160 449 274 607 200 538 l 69 499 b 397 697 119 592 215 697 b 685 431 578 697 685 593 l 685 0 l 676 0 l 657 -90 b 654 -118 656 -104 654 -108 b 685 -146 654 -136 664 -146 m 579 318 l 300 292 b 160 182 214 283 160 247 b 322 71 160 115 225 71 b 579 307 469 71 579 160 "},"å":{"ha":778,"x_min":0,"x_max":0,"o":"m 249 888 b 388 1022 249 965 308 1022 b 526 888 467 1022 526 965 b 388 753 526 808 465 753 b 249 888 310 753 249 810 m 328 888 b 388 826 328 853 351 826 b 449 888 424 826 449 853 b 388 949 449 922 424 949 b 328 888 351 949 328 922 m 69 499 b 397 697 119 592 215 697 b 685 431 578 697 685 593 l 685 0 l 582 0 l 582 113 l 563 113 b 306 -19 519 43 449 -19 b 51 181 154 -19 51 60 b 279 378 51 303 144 365 l 579 407 l 579 436 b 392 607 579 538 511 607 b 160 449 274 607 200 538 l 69 499 m 160 182 b 322 71 160 115 225 71 b 579 307 469 71 579 160 l 579 318 l 300 292 b 160 182 214 283 160 247 "},"ǻ":{"ha":778,"x_min":0,"x_max":0,"o":"m 388 753 b 249 888 310 753 249 810 b 388 1022 249 965 308 1022 l 392 1022 l 449 1153 l 581 1153 l 483 988 b 526 888 510 964 526 928 b 388 753 526 808 465 753 m 388 949 b 328 888 351 949 328 922 b 388 826 328 853 351 826 b 449 888 424 826 449 853 b 388 949 449 922 424 949 m 397 697 b 685 431 578 697 685 593 l 685 0 l 582 0 l 582 113 l 563 113 b 306 -19 519 43 449 -19 b 51 181 154 -19 51 60 b 279 378 51 303 144 365 l 579 407 l 579 436 b 392 607 579 538 511 607 b 160 449 274 607 200 538 l 69 499 b 397 697 119 592 215 697 m 579 318 l 300 292 b 160 182 214 283 160 247 b 322 71 160 115 225 71 b 579 307 469 71 579 160 "},"ã":{"ha":778,"x_min":0,"x_max":0,"o":"m 213 931 b 315 989 238 964 267 989 b 413 922 356 989 381 969 b 463 881 432 893 442 881 b 506 910 483 881 493 892 l 550 972 l 621 921 l 564 843 b 463 785 540 810 511 785 b 365 850 422 785 397 804 b 315 893 344 879 336 893 b 271 863 293 893 285 882 l 226 801 l 157 853 m 69 499 b 397 697 119 592 215 697 b 685 431 578 697 685 593 l 685 0 l 582 0 l 582 113 l 563 113 b 306 -19 519 43 449 -19 b 51 181 154 -19 51 60 b 279 378 51 303 144 365 l 579 407 l 579 436 b 392 607 579 538 511 607 b 160 449 274 607 200 538 l 69 499 m 160 182 b 322 71 160 115 225 71 b 579 307 469 71 579 160 l 579 318 l 300 292 b 160 182 214 283 160 247 "},"æ":{"ha":1300,"x_min":0,"x_max":0,"o":"m 51 186 b 279 375 51 303 144 365 l 579 397 l 579 436 b 392 607 579 538 511 607 b 160 449 274 607 200 538 l 69 499 b 394 697 119 592 214 697 b 640 557 519 697 600 643 l 657 557 b 924 697 713 640 807 697 b 1247 364 1114 697 1247 569 l 1247 308 l 693 308 b 929 75 701 167 793 75 b 1143 213 1049 75 1110 138 l 1236 165 b 933 -19 1189 78 1113 -19 b 643 149 800 -19 697 46 l 626 149 b 319 -19 574 51 476 -19 b 51 186 161 -19 51 63 m 1138 396 b 921 603 1131 529 1046 603 b 693 396 794 603 707 522 m 160 185 b 325 71 160 117 228 71 b 579 301 476 71 579 156 l 579 310 l 300 289 b 160 185 214 283 160 250 "},"ǽ":{"ha":1300,"x_min":0,"x_max":0,"o":"m 785 972 l 678 792 l 575 792 l 654 972 m 51 186 b 279 375 51 303 144 365 l 579 397 l 579 436 b 392 607 579 538 511 607 b 160 449 274 607 200 538 l 69 499 b 394 697 119 592 214 697 b 640 557 519 697 600 643 l 657 557 b 924 697 713 640 807 697 b 1247 364 1114 697 1247 569 l 1247 308 l 693 308 b 929 75 701 167 793 75 b 1143 213 1049 75 1110 138 l 1236 165 b 933 -19 1189 78 1113 -19 b 643 149 800 -19 697 46 l 626 149 b 319 -19 574 51 476 -19 b 51 186 161 -19 51 63 m 1138 396 b 921 603 1131 529 1046 603 b 693 396 794 603 707 522 m 160 185 b 325 71 160 117 228 71 b 579 301 476 71 579 156 l 579 310 l 300 289 b 160 185 214 283 160 250 "},"b":{"ha":854,"x_min":0,"x_max":0,"o":"m 208 972 l 208 560 l 225 560 b 475 697 263 629 333 697 b 797 339 654 697 797 553 b 475 -19 797 125 654 -19 b 225 118 333 -19 263 49 l 206 118 l 206 0 l 101 0 l 101 972 m 450 601 b 208 339 308 601 208 500 b 450 76 208 179 308 76 b 689 339 590 76 689 176 b 450 601 689 503 590 601 "},"c":{"ha":789,"x_min":0,"x_max":0,"o":"m 58 339 b 408 697 58 550 213 697 b 733 440 586 697 707 585 l 628 415 b 410 601 614 524 533 601 b 167 339 271 601 167 492 b 411 76 167 186 269 76 b 631 263 542 76 611 154 l 736 239 b 410 -19 707 92 590 -19 b 58 339 213 -19 58 129 "},"ć":{"ha":789,"x_min":0,"x_max":0,"o":"m 547 972 l 440 792 l 338 792 l 417 972 m 58 339 b 408 697 58 550 213 697 b 733 440 586 697 707 585 l 628 415 b 410 601 614 524 533 601 b 167 339 271 601 167 492 b 411 76 167 186 269 76 b 631 263 542 76 611 154 l 736 239 b 410 -19 707 92 590 -19 b 58 339 213 -19 58 129 "},"č":{"ha":789,"x_min":0,"x_max":0,"o":"m 617 972 l 479 792 l 343 792 l 206 972 l 321 972 l 404 860 l 418 860 l 501 972 m 58 339 b 408 697 58 550 213 697 b 733 440 586 697 707 585 l 628 415 b 410 601 614 524 533 601 b 167 339 271 601 167 492 b 411 76 167 186 269 76 b 631 263 542 76 611 154 l 736 239 b 410 -19 707 92 590 -19 b 58 339 213 -19 58 129 "},"ç":{"ha":789,"x_min":0,"x_max":0,"o":"m 736 239 b 443 -18 708 101 604 -6 l 431 -85 l 439 -85 b 508 -57 451 -71 474 -57 b 617 -171 567 -57 617 -97 b 485 -296 617 -249 561 -296 b 360 -226 422 -296 383 -272 l 413 -175 b 481 -224 422 -204 446 -224 b 536 -169 511 -224 536 -203 b 488 -119 536 -137 517 -119 b 447 -137 469 -119 458 -125 l 347 -137 l 347 -129 l 371 -18 b 58 339 193 1 58 143 b 408 697 58 550 213 697 b 733 440 586 697 707 585 l 628 415 b 410 601 614 524 533 601 b 167 339 271 601 167 492 b 411 76 167 186 269 76 b 631 263 542 76 611 154 l 736 239 "},"ċ":{"ha":789,"x_min":0,"x_max":0,"o":"m 322 890 b 411 978 322 940 360 978 b 501 890 463 978 501 940 b 411 801 501 839 463 801 b 322 890 360 801 322 839 m 58 339 b 408 697 58 550 213 697 b 733 440 586 697 707 585 l 628 415 b 410 601 614 524 533 601 b 167 339 271 601 167 492 b 411 76 167 186 269 76 b 631 263 542 76 611 154 l 736 239 b 410 -19 707 92 590 -19 b 58 339 213 -19 58 129 "},"d":{"ha":854,"x_min":0,"x_max":0,"o":"m 753 0 l 650 0 l 650 119 l 631 119 b 381 -18 592 50 521 -18 b 58 340 200 -18 58 126 b 381 699 58 554 200 699 b 631 561 521 699 592 631 l 647 561 l 647 972 l 753 972 m 404 603 b 167 340 265 603 167 503 b 404 78 167 176 265 78 b 647 340 546 78 647 179 b 404 603 647 500 546 603 "},"ð":{"ha":817,"x_min":0,"x_max":0,"o":"m 456 924 b 753 357 657 817 753 622 b 406 -19 753 126 613 -19 b 58 339 197 -19 58 129 b 383 696 58 550 197 696 b 604 597 489 696 557 656 l 621 597 b 419 839 592 696 529 781 l 386 758 l 313 786 l 349 872 b 199 910 304 888 254 901 l 215 1000 b 383 956 276 990 333 975 l 418 1036 l 490 1008 l 456 924 m 404 79 b 644 339 550 79 644 186 b 404 600 644 494 550 600 b 164 339 258 600 164 489 b 404 79 164 182 258 79 "},"ď":{"ha":935,"x_min":0,"x_max":0,"o":"m 753 0 l 650 0 l 650 119 l 631 119 b 381 -18 592 50 521 -18 b 58 340 200 -18 58 126 b 381 699 58 554 200 699 b 631 561 521 699 592 631 l 647 561 l 647 972 l 753 972 m 969 972 l 901 726 l 839 726 l 853 972 m 404 603 b 167 340 265 603 167 503 b 404 78 167 176 265 78 b 647 340 546 78 647 179 b 404 603 647 500 546 603 "},"đ":{"ha":854,"x_min":0,"x_max":0,"o":"m 851 792 l 753 792 l 753 0 l 650 0 l 650 119 l 631 119 b 381 -18 592 50 521 -18 b 58 340 200 -18 58 126 b 381 699 58 554 200 699 b 631 561 521 699 592 631 l 647 561 l 647 792 l 458 792 l 458 871 l 647 871 l 647 972 l 753 972 l 753 871 l 851 871 m 404 78 b 647 340 546 78 647 179 b 404 603 647 500 546 603 b 167 340 265 603 167 503 b 404 78 167 176 265 78 "},"e":{"ha":775,"x_min":0,"x_max":0,"o":"m 57 344 b 397 697 57 546 200 697 b 724 364 589 697 724 569 l 724 308 l 168 308 b 406 75 176 167 268 75 b 618 213 525 75 585 138 l 711 165 b 407 -19 665 78 588 -19 b 57 344 199 -19 57 136 m 613 396 b 397 603 607 529 522 603 b 168 396 269 603 183 522 "},"é":{"ha":775,"x_min":0,"x_max":0,"o":"m 533 972 l 426 792 l 324 792 l 403 972 m 57 344 b 397 697 57 546 200 697 b 724 364 589 697 724 569 l 724 308 l 168 308 b 406 75 176 167 268 75 b 618 213 525 75 585 138 l 711 165 b 407 -19 665 78 588 -19 b 57 344 199 -19 57 136 m 613 396 b 397 603 607 529 522 603 b 168 396 269 603 183 522 "},"ě":{"ha":775,"x_min":0,"x_max":0,"o":"m 603 972 l 465 792 l 329 792 l 192 972 l 307 972 l 390 860 l 404 860 l 488 972 m 57 344 b 397 697 57 546 200 697 b 724 364 589 697 724 569 l 724 308 l 168 308 b 406 75 176 167 268 75 b 618 213 525 75 585 138 l 711 165 b 407 -19 665 78 588 -19 b 57 344 199 -19 57 136 m 613 396 b 397 603 607 529 522 603 b 168 396 269 603 183 522 "},"ê":{"ha":775,"x_min":0,"x_max":0,"o":"m 404 904 l 390 904 l 307 792 l 192 792 l 329 972 l 465 972 l 603 792 l 488 792 m 57 344 b 397 697 57 546 200 697 b 724 364 589 697 724 569 l 724 308 l 168 308 b 406 75 176 167 268 75 b 618 213 525 75 585 138 l 711 165 b 407 -19 665 78 588 -19 b 57 344 199 -19 57 136 m 613 396 b 397 603 607 529 522 603 b 168 396 269 603 183 522 "},"ë":{"ha":775,"x_min":0,"x_max":0,"o":"m 185 890 b 274 978 185 940 222 978 b 364 890 325 978 364 940 b 274 801 364 839 325 801 b 185 890 222 801 185 839 m 432 890 b 521 978 432 940 469 978 b 610 890 572 978 610 940 b 521 801 610 839 572 801 b 432 890 469 801 432 839 m 57 344 b 397 697 57 546 200 697 b 724 364 589 697 724 569 l 724 308 l 168 308 b 406 75 176 167 268 75 b 618 213 525 75 585 138 l 711 165 b 407 -19 665 78 588 -19 b 57 344 199 -19 57 136 m 613 396 b 397 603 607 529 522 603 b 168 396 269 603 183 522 "},"ė":{"ha":775,"x_min":0,"x_max":0,"o":"m 308 890 b 397 978 308 940 346 978 b 488 890 449 978 488 940 b 397 801 488 839 449 801 b 308 890 346 801 308 839 m 57 344 b 397 697 57 546 200 697 b 724 364 589 697 724 569 l 724 308 l 168 308 b 406 75 176 167 268 75 b 618 213 525 75 585 138 l 711 165 b 407 -19 665 78 588 -19 b 57 344 199 -19 57 136 m 613 396 b 397 603 607 529 522 603 b 168 396 269 603 183 522 "},"è":{"ha":775,"x_min":0,"x_max":0,"o":"m 476 792 l 372 792 l 257 972 l 385 972 m 57 344 b 397 697 57 546 200 697 b 724 364 589 697 724 569 l 724 308 l 168 308 b 406 75 176 167 268 75 b 618 213 525 75 585 138 l 711 165 b 407 -19 665 78 588 -19 b 57 344 199 -19 57 136 m 613 396 b 397 603 607 529 522 603 b 168 396 269 603 183 522 "},"ē":{"ha":775,"x_min":0,"x_max":0,"o":"m 593 792 l 201 792 l 201 881 l 593 881 m 57 344 b 397 697 57 546 200 697 b 724 364 589 697 724 569 l 724 308 l 168 308 b 406 75 176 167 268 75 b 618 213 525 75 585 138 l 711 165 b 407 -19 665 78 588 -19 b 57 344 199 -19 57 136 m 613 396 b 397 603 607 529 522 603 b 168 396 269 603 183 522 "},"ę":{"ha":775,"x_min":0,"x_max":0,"o":"m 724 308 l 168 308 b 406 75 176 167 268 75 b 618 213 525 75 585 138 l 711 165 b 439 -18 668 83 597 -8 l 424 -90 b 421 -118 422 -104 421 -108 b 451 -146 421 -136 431 -146 l 511 -146 l 511 -228 l 432 -228 b 333 -135 375 -228 333 -196 b 342 -74 333 -115 338 -96 l 353 -15 b 57 344 175 8 57 154 b 397 697 57 546 200 697 b 724 364 589 697 724 569 m 613 396 b 397 603 607 529 522 603 b 168 396 269 603 183 522 "},"f":{"ha":600,"x_min":0,"x_max":0,"o":"m 240 678 l 240 863 b 347 972 240 929 283 972 l 526 972 l 526 882 l 386 882 b 347 840 361 882 347 868 l 347 678 l 563 678 l 563 588 l 347 588 l 347 0 l 240 0 l 240 588 l 29 588 l 29 678 "},"g":{"ha":854,"x_min":0,"x_max":0,"o":"m 753 678 l 753 29 b 419 -297 753 -158 626 -297 b 72 -107 239 -297 138 -212 l 165 -53 b 413 -203 206 -132 288 -203 b 647 36 549 -203 647 -124 l 647 133 l 631 133 b 381 -4 592 64 521 -4 b 58 347 200 -4 58 136 b 381 697 58 557 200 697 b 631 560 521 697 592 629 l 650 560 l 650 678 m 404 92 b 647 347 546 92 647 190 b 404 601 647 503 546 601 b 167 347 265 601 167 506 b 404 92 167 188 265 92 "},"ğ":{"ha":854,"x_min":0,"x_max":0,"o":"m 431 792 b 268 949 335 792 268 850 l 268 983 l 356 983 l 356 956 b 431 878 356 910 381 878 b 506 956 481 878 506 910 l 506 983 l 593 983 l 593 949 b 431 792 593 850 526 792 m 753 678 l 753 29 b 419 -297 753 -158 626 -297 b 72 -107 239 -297 138 -212 l 165 -53 b 413 -203 206 -132 288 -203 b 647 36 549 -203 647 -124 l 647 133 l 631 133 b 381 -4 592 64 521 -4 b 58 347 200 -4 58 136 b 381 697 58 557 200 697 b 631 560 521 697 592 629 l 650 560 l 650 678 m 404 92 b 647 347 546 92 647 190 b 404 601 647 503 546 601 b 167 347 265 601 167 506 b 404 92 167 188 265 92 "},"ģ":{"ha":854,"x_min":0,"x_max":0,"o":"m 431 806 b 335 900 375 806 335 844 l 335 1026 b 440 1128 335 1089 378 1128 l 522 1128 l 522 1063 l 447 1063 b 408 1026 421 1063 408 1051 l 408 990 b 433 993 414 992 421 993 b 526 901 486 993 526 954 b 431 806 526 844 486 806 m 753 678 l 753 29 b 419 -297 753 -158 626 -297 b 72 -107 239 -297 138 -212 l 165 -53 b 413 -203 206 -132 288 -203 b 647 36 549 -203 647 -124 l 647 133 l 631 133 b 381 -4 592 64 521 -4 b 58 347 200 -4 58 136 b 381 697 58 557 200 697 b 631 560 521 697 592 629 l 650 560 l 650 678 m 404 92 b 647 347 546 92 647 190 b 404 601 647 503 546 601 b 167 347 265 601 167 506 b 404 92 167 188 265 92 "},"ġ":{"ha":854,"x_min":0,"x_max":0,"o":"m 431 813 b 342 901 379 813 342 850 b 431 989 342 951 379 989 b 521 901 482 989 521 951 b 431 813 521 850 482 813 m 753 678 l 753 29 b 419 -297 753 -158 626 -297 b 72 -107 239 -297 138 -212 l 165 -53 b 413 -203 206 -132 288 -203 b 647 36 549 -203 647 -124 l 647 133 l 631 133 b 381 -4 592 64 521 -4 b 58 347 200 -4 58 136 b 381 697 58 557 200 697 b 631 560 521 697 592 629 l 650 560 l 650 678 m 404 92 b 647 347 546 92 647 190 b 404 601 647 503 546 601 b 167 347 265 601 167 506 b 404 92 167 188 265 92 "},"h":{"ha":825,"x_min":0,"x_max":0,"o":"m 208 972 l 208 556 l 225 556 b 463 692 258 625 326 692 b 732 411 608 692 732 596 l 732 0 l 626 0 l 626 401 b 432 596 626 535 551 596 b 208 343 300 596 208 510 l 208 0 l 101 0 l 101 972 "},"ħ":{"ha":825,"x_min":0,"x_max":0,"o":"m 463 692 b 732 411 608 692 732 596 l 732 0 l 626 0 l 626 401 b 432 596 626 535 551 596 b 208 343 300 596 208 510 l 208 0 l 101 0 l 101 792 l 3 792 l 3 871 l 101 871 l 101 972 l 208 972 l 208 871 l 396 871 l 396 792 l 208 792 l 208 556 l 225 556 b 463 692 258 625 326 692 "},"i":{"ha":308,"x_min":0,"x_max":0,"o":"m 65 890 b 154 978 65 940 103 978 b 244 890 206 978 244 940 b 154 801 244 839 206 801 b 65 890 103 801 65 839 m 208 0 l 101 0 l 101 678 l 208 678 "},"ı":{"ha":308,"x_min":0,"x_max":0,"o":"m 208 0 l 101 0 l 101 678 l 208 678 "},"í":{"ha":308,"x_min":0,"x_max":0,"o":"m 290 972 l 183 792 l 81 792 l 160 972 m 208 0 l 101 0 l 101 678 l 208 678 "},"î":{"ha":308,"x_min":0,"x_max":0,"o":"m 161 904 l 147 904 l 64 792 l -51 792 l 86 972 l 222 972 l 360 792 l 244 792 m 208 0 l 101 0 l 101 678 l 208 678 "},"ï":{"ha":308,"x_min":0,"x_max":0,"o":"m -58 890 b 31 978 -58 940 -21 978 b 121 890 82 978 121 940 b 31 801 121 839 82 801 b -58 890 -21 801 -58 839 m 189 890 b 278 978 189 940 226 978 b 367 890 329 978 367 940 b 278 801 367 839 329 801 b 189 890 226 801 189 839 m 208 0 l 101 0 l 101 678 l 208 678 "},"ì":{"ha":308,"x_min":0,"x_max":0,"o":"m 235 792 l 131 792 l 15 972 l 143 972 m 208 0 l 101 0 l 101 678 l 208 678 "},"ĳ":{"ha":626,"x_min":0,"x_max":0,"o":"m 65 890 b 154 978 65 940 103 978 b 244 890 206 978 244 940 b 154 801 244 839 206 801 b 65 890 103 801 65 839 m 383 890 b 472 978 383 940 421 978 b 561 890 524 978 561 940 b 472 801 561 839 524 801 b 383 890 421 801 383 839 m 208 0 l 101 0 l 101 678 l 208 678 m 525 -172 b 419 -278 525 -236 483 -278 l 246 -278 l 246 -186 l 381 -186 b 419 -144 406 -186 419 -172 l 419 678 l 525 678 "},"ī":{"ha":308,"x_min":0,"x_max":0,"o":"m 351 792 l -40 792 l -40 881 l 351 881 m 208 0 l 101 0 l 101 678 l 208 678 "},"į":{"ha":308,"x_min":0,"x_max":0,"o":"m 154 801 b 65 890 103 801 65 839 b 154 978 65 940 103 978 b 244 890 206 978 244 940 b 154 801 244 839 206 801 m 265 -146 l 265 -228 l 186 -228 b 88 -135 129 -228 88 -196 b 96 -74 88 -115 92 -96 l 111 0 l 101 0 l 101 678 l 208 678 l 208 0 l 197 0 l 178 -90 b 175 -118 176 -104 175 -108 b 206 -146 175 -136 185 -146 "},"j":{"ha":318,"x_min":0,"x_max":0,"o":"m 74 890 b 163 978 74 940 111 978 b 253 890 214 978 253 940 b 163 801 253 839 214 801 b 74 890 111 801 74 839 m 217 -172 b 111 -278 217 -236 175 -278 l -62 -278 l -62 -186 l 72 -186 b 111 -144 97 -186 111 -172 l 111 678 l 217 678 "},"ȷ":{"ha":318,"x_min":0,"x_max":0,"o":"m 217 -172 b 111 -278 217 -236 175 -278 l -62 -278 l -62 -186 l 72 -186 b 111 -144 97 -186 111 -172 l 111 678 l 217 678 "},"k":{"ha":768,"x_min":0,"x_max":0,"o":"m 432 410 l 736 0 l 610 0 l 356 344 l 208 218 l 208 0 l 101 0 l 101 972 l 208 972 l 208 361 l 225 361 l 589 678 l 744 678 "},"ķ":{"ha":768,"x_min":0,"x_max":0,"o":"m 432 410 l 736 0 l 610 0 l 356 344 l 208 218 l 208 0 l 101 0 l 101 972 l 208 972 l 208 361 l 225 361 l 589 678 l 744 678 m 411 -69 b 507 -165 467 -69 507 -110 l 507 -290 b 401 -393 507 -354 464 -393 l 319 -393 l 319 -328 l 394 -328 b 433 -290 421 -328 433 -315 l 433 -256 b 408 -258 428 -257 421 -258 b 315 -165 356 -258 315 -218 b 411 -69 315 -110 356 -69 "},"l":{"ha":308,"x_min":0,"x_max":0,"o":"m 208 0 l 101 0 l 101 972 l 208 972 "},"ĺ":{"ha":308,"x_min":0,"x_max":0,"o":"m 290 1222 l 181 1065 l 78 1065 l 157 1222 m 208 0 l 101 0 l 101 972 l 208 972 "},"ľ":{"ha":388,"x_min":0,"x_max":0,"o":"m 208 0 l 101 0 l 101 972 l 208 972 m 422 972 l 354 726 l 292 726 l 307 972 "},"ļ":{"ha":308,"x_min":0,"x_max":0,"o":"m 208 0 l 101 0 l 101 972 l 208 972 m 58 -165 b 154 -69 58 -110 99 -69 b 250 -165 210 -69 250 -110 l 250 -290 b 144 -393 250 -354 207 -393 l 63 -393 l 63 -328 l 138 -328 b 176 -290 164 -328 176 -315 l 176 -256 b 151 -258 171 -257 164 -258 b 58 -165 99 -258 58 -218 "},"ŀ":{"ha":504,"x_min":0,"x_max":0,"o":"m 208 0 l 101 0 l 101 972 l 208 972 m 313 365 b 408 461 313 419 354 461 b 504 365 464 461 504 419 b 408 269 504 310 464 269 b 313 365 354 269 313 310 "},"ł":{"ha":433,"x_min":0,"x_max":0,"o":"m 269 433 l 269 0 l 164 0 l 164 382 l 67 336 l 28 411 l 164 476 l 164 972 l 269 972 l 269 526 l 367 572 l 404 497 "},"m":{"ha":1164,"x_min":0,"x_max":0,"o":"m 206 678 l 206 582 l 225 582 b 418 692 258 649 319 692 b 611 567 517 692 583 639 l 631 567 b 840 692 669 646 739 692 b 1071 463 975 692 1071 597 l 1071 0 l 964 0 l 964 453 b 811 596 964 539 907 596 b 639 413 714 596 639 533 l 639 0 l 533 0 l 533 453 b 379 596 533 539 475 596 b 208 413 283 596 208 533 l 208 0 l 101 0 l 101 678 "},"n":{"ha":825,"x_min":0,"x_max":0,"o":"m 206 678 l 206 556 l 225 556 b 463 692 258 625 326 692 b 732 411 608 692 732 596 l 732 0 l 626 0 l 626 401 b 432 596 626 535 551 596 b 208 343 300 596 208 510 l 208 0 l 101 0 l 101 678 "},"ń":{"ha":825,"x_min":0,"x_max":0,"o":"m 550 972 l 443 792 l 340 792 l 419 972 m 206 678 l 206 556 l 225 556 b 463 692 258 625 326 692 b 732 411 608 692 732 596 l 732 0 l 626 0 l 626 401 b 432 596 626 535 551 596 b 208 343 300 596 208 510 l 208 0 l 101 0 l 101 678 "},"ň":{"ha":825,"x_min":0,"x_max":0,"o":"m 619 972 l 482 792 l 346 792 l 208 972 l 324 972 l 407 860 l 421 860 l 504 972 m 206 678 l 206 556 l 225 556 b 463 692 258 625 326 692 b 732 411 608 692 732 596 l 732 0 l 626 0 l 626 401 b 432 596 626 535 551 596 b 208 343 300 596 208 510 l 208 0 l 101 0 l 101 678 "},"ņ":{"ha":825,"x_min":0,"x_max":0,"o":"m 206 678 l 206 556 l 225 556 b 463 692 258 625 326 692 b 732 411 608 692 732 596 l 732 0 l 626 0 l 626 401 b 432 596 626 535 551 596 b 208 343 300 596 208 510 l 208 0 l 101 0 l 101 678 m 321 -165 b 417 -69 321 -110 361 -69 b 513 -165 472 -69 513 -110 l 513 -290 b 407 -393 513 -354 469 -393 l 325 -393 l 325 -328 l 400 -328 b 439 -290 426 -328 439 -315 l 439 -256 b 414 -258 433 -257 426 -258 b 321 -165 361 -258 321 -218 "},"ŋ":{"ha":825,"x_min":0,"x_max":0,"o":"m 463 697 b 732 407 617 697 732 606 l 732 -172 b 626 -278 732 -236 690 -278 l 453 -278 l 453 -186 l 588 -186 b 626 -144 613 -186 626 -172 l 626 392 b 432 601 626 533 558 601 b 208 349 290 601 208 508 l 208 0 l 101 0 l 101 678 l 206 678 l 206 556 l 221 556 b 463 697 260 643 331 697 "},"ñ":{"ha":825,"x_min":0,"x_max":0,"o":"m 238 931 b 340 989 263 964 292 989 b 438 922 381 989 406 969 b 488 881 457 893 467 881 b 531 910 508 881 518 892 l 575 972 l 646 921 l 589 843 b 488 785 565 810 536 785 b 390 850 447 785 422 804 b 340 893 369 879 361 893 b 296 863 318 893 310 882 l 251 801 l 182 853 m 206 678 l 206 556 l 225 556 b 463 692 258 625 326 692 b 732 411 608 692 732 596 l 732 0 l 626 0 l 626 401 b 432 596 626 535 551 596 b 208 343 300 596 208 510 l 208 0 l 101 0 l 101 678 "},"o":{"ha":808,"x_min":0,"x_max":0,"o":"m 58 339 b 404 697 58 550 200 697 b 751 339 610 697 751 550 b 404 -19 751 129 610 -19 b 58 339 200 -19 58 129 m 164 339 b 404 76 164 181 258 76 b 644 339 550 76 644 185 b 404 601 644 494 550 601 b 164 339 258 601 164 490 "},"ó":{"ha":808,"x_min":0,"x_max":0,"o":"m 540 972 l 433 792 l 331 792 l 410 972 m 58 339 b 404 697 58 550 200 697 b 751 339 610 697 751 550 b 404 -19 751 129 610 -19 b 58 339 200 -19 58 129 m 164 339 b 404 76 164 181 258 76 b 644 339 550 76 644 185 b 404 601 644 494 550 601 b 164 339 258 601 164 490 "},"ô":{"ha":808,"x_min":0,"x_max":0,"o":"m 411 904 l 397 904 l 314 792 l 199 792 l 336 972 l 472 972 l 610 792 l 494 792 m 58 339 b 404 697 58 550 200 697 b 751 339 610 697 751 550 b 404 -19 751 129 610 -19 b 58 339 200 -19 58 129 m 164 339 b 404 76 164 181 258 76 b 644 339 550 76 644 185 b 404 601 644 494 550 601 b 164 339 258 601 164 490 "},"ö":{"ha":808,"x_min":0,"x_max":0,"o":"m 192 890 b 281 978 192 940 229 978 b 371 890 332 978 371 940 b 281 801 371 839 332 801 b 192 890 229 801 192 839 m 439 890 b 528 978 439 940 476 978 b 617 890 579 978 617 940 b 528 801 617 839 579 801 b 439 890 476 801 439 839 m 58 339 b 404 697 58 550 200 697 b 751 339 610 697 751 550 b 404 -19 751 129 610 -19 b 58 339 200 -19 58 129 m 164 339 b 404 76 164 181 258 76 b 644 339 550 76 644 185 b 404 601 644 494 550 601 b 164 339 258 601 164 490 "},"ò":{"ha":808,"x_min":0,"x_max":0,"o":"m 485 792 l 381 792 l 265 972 l 393 972 m 58 339 b 404 697 58 550 200 697 b 751 339 610 697 751 550 b 404 -19 751 129 610 -19 b 58 339 200 -19 58 129 m 164 339 b 404 76 164 181 258 76 b 644 339 550 76 644 185 b 404 601 644 494 550 601 b 164 339 258 601 164 490 "},"ő":{"ha":808,"x_min":0,"x_max":0,"o":"m 451 972 l 336 792 l 235 792 l 326 972 m 632 972 l 517 792 l 415 792 l 507 972 m 58 339 b 404 697 58 550 200 697 b 751 339 610 697 751 550 b 404 -19 751 129 610 -19 b 58 339 200 -19 58 129 m 164 339 b 404 76 164 181 258 76 b 644 339 550 76 644 185 b 404 601 644 494 550 601 b 164 339 258 601 164 490 "},"ō":{"ha":808,"x_min":0,"x_max":0,"o":"m 601 792 l 210 792 l 210 881 l 601 881 m 58 339 b 404 697 58 550 200 697 b 751 339 610 697 751 550 b 404 -19 751 129 610 -19 b 58 339 200 -19 58 129 m 164 339 b 404 76 164 181 258 76 b 644 339 550 76 644 185 b 404 601 644 494 550 601 b 164 339 258 601 164 490 "},"ø":{"ha":808,"x_min":0,"x_max":0,"o":"m 569 660 b 751 339 682 603 751 488 b 404 -19 751 129 610 -19 b 333 -14 379 -19 356 -17 l 301 -106 l 207 -72 l 239 18 b 58 339 128 75 58 192 b 404 697 58 550 200 697 b 476 690 429 697 453 694 l 506 775 l 599 743 l 569 660 m 164 339 b 272 113 164 236 204 156 l 443 599 b 404 601 431 600 418 601 b 164 339 258 601 164 490 m 404 76 b 644 339 550 76 644 185 b 536 565 644 440 604 521 l 367 79 b 404 76 378 78 392 76 "},"ǿ":{"ha":808,"x_min":0,"x_max":0,"o":"m 433 792 l 331 792 l 410 972 l 540 972 m 569 660 b 751 339 682 603 751 488 b 404 -19 751 129 610 -19 b 333 -14 379 -19 356 -17 l 301 -106 l 207 -72 l 239 18 b 58 339 128 75 58 192 b 404 697 58 550 200 697 b 476 690 429 697 453 694 l 506 775 l 599 743 l 569 660 m 164 339 b 272 113 164 236 204 156 l 443 599 b 404 601 431 600 418 601 b 164 339 258 601 164 490 m 404 76 b 644 339 550 76 644 185 b 536 565 644 440 604 521 l 367 79 b 404 76 378 78 392 76 "},"õ":{"ha":808,"x_min":0,"x_max":0,"o":"m 228 931 b 331 989 253 964 282 989 b 428 922 371 989 396 969 b 478 881 447 893 457 881 b 521 910 499 881 508 892 l 565 972 l 636 921 l 579 843 b 478 785 556 810 526 785 b 381 850 438 785 413 804 b 331 893 360 879 351 893 b 286 863 308 893 300 882 l 242 801 l 172 853 m 58 339 b 404 697 58 550 200 697 b 751 339 610 697 751 550 b 404 -19 751 129 610 -19 b 58 339 200 -19 58 129 m 164 339 b 404 76 164 181 258 76 b 644 339 550 76 644 185 b 404 601 644 494 550 601 b 164 339 258 601 164 490 "},"œ":{"ha":1371,"x_min":0,"x_max":0,"o":"m 57 339 b 403 697 57 549 200 697 b 693 519 536 697 639 636 l 710 519 b 996 697 763 635 868 697 b 1319 364 1185 697 1319 569 l 1319 308 l 765 308 b 1003 75 772 167 865 75 b 1215 213 1121 75 1181 138 l 1308 165 b 1004 -19 1263 78 1183 -19 b 710 161 874 -19 767 44 l 693 161 b 403 -19 638 42 536 -19 b 57 339 200 -19 57 128 m 1208 396 b 993 603 1203 529 1118 603 b 765 396 867 603 779 522 m 164 339 b 404 76 164 181 258 76 b 644 339 550 76 644 185 b 404 601 644 494 550 601 b 164 339 258 601 164 490 "},"p":{"ha":854,"x_min":0,"x_max":0,"o":"m 101 678 l 206 678 l 206 560 l 225 560 b 475 697 263 629 333 697 b 797 339 654 697 797 553 b 475 -19 797 125 654 -19 b 225 118 333 -19 263 49 l 208 118 l 208 -278 l 101 -278 m 450 76 b 689 339 590 76 689 176 b 450 601 689 503 590 601 b 208 339 308 601 208 500 b 450 76 208 179 308 76 "},"þ":{"ha":854,"x_min":0,"x_max":0,"o":"m 101 972 l 208 972 l 208 560 l 225 560 b 475 697 263 629 333 697 b 797 339 654 697 797 553 b 475 -19 797 125 654 -19 b 225 118 333 -19 263 49 l 208 118 l 208 -278 l 101 -278 m 450 76 b 689 339 590 76 689 176 b 450 601 689 503 590 601 b 208 339 308 601 208 500 b 450 76 208 179 308 76 "},"q":{"ha":854,"x_min":0,"x_max":0,"o":"m 647 -278 l 647 118 l 631 118 b 381 -19 592 49 521 -19 b 58 339 200 -19 58 125 b 381 697 58 553 200 697 b 631 560 521 697 592 629 l 650 560 l 650 678 l 753 678 l 753 -278 m 404 76 b 647 339 546 76 647 179 b 404 601 647 500 546 601 b 167 339 265 601 167 503 b 404 76 167 176 265 76 "},"r":{"ha":507,"x_min":0,"x_max":0,"o":"m 206 588 l 225 588 b 394 681 251 654 304 681 l 482 681 l 482 586 l 372 586 b 208 415 272 586 208 532 l 208 0 l 101 0 l 101 678 l 206 678 "},"ŕ":{"ha":507,"x_min":0,"x_max":0,"o":"m 425 972 l 318 792 l 215 792 l 294 972 m 206 588 l 225 588 b 394 681 251 654 304 681 l 482 681 l 482 586 l 372 586 b 208 415 272 586 208 532 l 208 0 l 101 0 l 101 678 l 206 678 "},"ř":{"ha":507,"x_min":0,"x_max":0,"o":"m 494 972 l 357 792 l 221 792 l 83 972 l 199 972 l 282 860 l 296 860 l 379 972 m 206 588 l 225 588 b 394 681 251 654 304 681 l 482 681 l 482 586 l 372 586 b 208 415 272 586 208 532 l 208 0 l 101 0 l 101 678 l 206 678 "},"ŗ":{"ha":507,"x_min":0,"x_max":0,"o":"m 206 588 l 225 588 b 394 681 251 654 304 681 l 482 681 l 482 586 l 372 586 b 208 415 272 586 208 532 l 208 0 l 101 0 l 101 678 l 206 678 m 58 -165 b 154 -69 58 -110 99 -69 b 250 -165 210 -69 250 -110 l 250 -290 b 144 -393 250 -354 207 -393 l 63 -393 l 63 -328 l 138 -328 b 176 -290 164 -328 176 -315 l 176 -256 b 151 -258 171 -257 164 -258 b 58 -165 99 -258 58 -218 "},"s":{"ha":724,"x_min":0,"x_max":0,"o":"m 78 503 b 332 697 78 624 183 697 b 665 536 479 697 590 631 l 588 475 b 335 608 517 574 422 608 b 182 507 247 608 182 572 b 331 400 182 442 242 415 l 413 386 b 664 188 553 363 664 317 b 393 -19 664 60 544 -19 b 33 190 236 -19 103 50 l 122 238 b 390 69 182 108 290 69 b 560 182 493 69 560 114 b 400 292 560 249 494 276 l 318 306 b 78 503 169 331 78 385 "},"ś":{"ha":724,"x_min":0,"x_max":0,"o":"m 479 972 l 372 792 l 269 792 l 349 972 m 78 503 b 332 697 78 624 183 697 b 665 536 479 697 590 631 l 588 475 b 335 608 517 574 422 608 b 182 507 247 608 182 572 b 331 400 182 442 242 415 l 413 386 b 664 188 553 363 664 317 b 393 -19 664 60 544 -19 b 33 190 236 -19 103 50 l 122 238 b 390 69 182 108 290 69 b 560 182 493 69 560 114 b 400 292 560 249 494 276 l 318 306 b 78 503 169 331 78 385 "},"š":{"ha":724,"x_min":0,"x_max":0,"o":"m 549 972 l 411 792 l 275 792 l 138 972 l 253 972 l 336 860 l 350 860 l 433 972 m 78 503 b 332 697 78 624 183 697 b 665 536 479 697 590 631 l 588 475 b 335 608 517 574 422 608 b 182 507 247 608 182 572 b 331 400 182 442 242 415 l 413 386 b 664 188 553 363 664 317 b 393 -19 664 60 544 -19 b 33 190 236 -19 103 50 l 122 238 b 390 69 182 108 290 69 b 560 182 493 69 560 114 b 400 292 560 249 494 276 l 318 306 b 78 503 169 331 78 385 "},"ş":{"ha":724,"x_min":0,"x_max":0,"o":"m 413 386 b 664 188 553 363 664 317 b 393 -19 664 60 544 -19 l 390 -19 l 378 -85 l 386 -85 b 456 -57 399 -71 421 -57 b 564 -171 514 -57 564 -97 b 432 -296 564 -249 508 -296 b 307 -226 369 -296 331 -272 l 360 -175 b 428 -224 369 -204 393 -224 b 483 -169 458 -224 483 -203 b 435 -119 483 -137 464 -119 b 394 -137 417 -119 406 -125 l 294 -137 l 294 -129 l 318 -14 b 33 190 194 6 92 72 l 122 238 b 390 69 182 108 290 69 b 560 182 493 69 560 114 b 400 292 560 249 494 276 l 318 306 b 78 503 169 331 78 385 b 332 697 78 624 183 697 b 665 536 479 697 590 631 l 588 475 b 335 608 517 574 422 608 b 182 507 247 608 182 572 b 331 400 182 442 242 415 l 413 386 "},"ș":{"ha":724,"x_min":0,"x_max":0,"o":"m 78 503 b 332 697 78 624 183 697 b 665 536 479 697 590 631 l 588 475 b 335 608 517 574 422 608 b 182 507 247 608 182 572 b 331 400 182 442 242 415 l 413 386 b 664 188 553 363 664 317 b 393 -19 664 60 544 -19 b 33 190 236 -19 103 50 l 122 238 b 390 69 182 108 290 69 b 560 182 493 69 560 114 b 400 292 560 249 494 276 l 318 306 b 78 503 169 331 78 385 m 265 -165 b 361 -69 265 -110 306 -69 b 457 -165 417 -69 457 -110 l 457 -290 b 351 -393 457 -354 414 -393 l 269 -393 l 269 -328 l 344 -328 b 383 -290 371 -328 383 -315 l 383 -256 b 358 -258 378 -257 371 -258 b 265 -165 306 -258 265 -218 "},"ß":{"ha":843,"x_min":0,"x_max":0,"o":"m 93 614 b 439 992 93 851 235 992 b 708 774 600 992 708 893 b 558 547 708 660 633 599 b 522 499 533 531 522 517 b 564 454 522 479 535 467 l 599 438 b 807 203 707 389 807 329 b 553 -19 807 71 704 -19 b 265 157 413 -19 314 75 l 346 214 b 553 72 383 144 460 72 b 701 201 642 72 701 121 b 563 349 701 275 639 314 l 511 372 b 414 492 443 401 414 440 b 506 621 414 554 453 585 b 603 772 556 657 603 701 b 439 900 603 850 531 900 b 200 619 328 900 200 824 l 200 0 l 93 0 "},"t":{"ha":606,"x_min":0,"x_max":0,"o":"m 226 678 l 226 921 l 332 921 l 332 678 l 556 678 l 556 588 l 332 588 l 332 133 b 371 92 332 106 346 92 l 517 92 l 517 0 l 331 0 b 226 107 268 0 226 42 l 226 588 l 15 588 l 15 678 "},"ŧ":{"ha":606,"x_min":0,"x_max":0,"o":"m 332 588 l 332 407 l 556 407 l 556 315 l 332 315 l 332 133 b 371 92 332 106 346 92 l 517 92 l 517 0 l 331 0 b 226 107 268 0 226 42 l 226 315 l 15 315 l 15 407 l 226 407 l 226 588 l 15 588 l 15 678 l 226 678 l 226 949 l 332 949 l 332 678 l 556 678 l 556 588 "},"ť":{"ha":606,"x_min":0,"x_max":0,"o":"m 565 1038 l 497 792 l 435 792 l 450 1038 m 226 678 l 226 921 l 332 921 l 332 678 l 556 678 l 556 588 l 332 588 l 332 133 b 371 92 332 106 346 92 l 517 92 l 517 0 l 331 0 b 226 107 268 0 226 42 l 226 588 l 15 588 l 15 678 "},"ţ":{"ha":606,"x_min":0,"x_max":0,"o":"m 332 588 l 332 133 b 371 92 332 106 346 92 l 517 92 l 517 0 l 365 0 l 349 -85 l 357 -85 b 426 -57 369 -71 392 -57 b 535 -171 485 -57 535 -97 b 403 -296 535 -249 479 -296 b 278 -226 340 -296 301 -272 l 331 -175 b 399 -224 340 -204 364 -224 b 454 -169 429 -224 454 -203 b 406 -119 454 -137 435 -119 b 365 -137 388 -119 376 -125 l 265 -137 l 265 -129 l 293 6 b 226 107 251 19 226 56 l 226 588 l 15 588 l 15 678 l 226 678 l 226 921 l 332 921 l 332 678 l 556 678 l 556 588 "},"ț":{"ha":606,"x_min":0,"x_max":0,"o":"m 226 678 l 226 921 l 332 921 l 332 678 l 556 678 l 556 588 l 332 588 l 332 133 b 371 92 332 106 346 92 l 517 92 l 517 0 l 331 0 b 226 107 268 0 226 42 l 226 588 l 15 588 l 15 678 m 236 -165 b 332 -69 236 -110 276 -69 b 428 -165 388 -69 428 -110 l 428 -290 b 322 -393 428 -354 385 -393 l 240 -393 l 240 -328 l 315 -328 b 354 -290 342 -328 354 -315 l 354 -256 b 329 -258 349 -257 342 -258 b 236 -165 276 -258 236 -218 "},"u":{"ha":825,"x_min":0,"x_max":0,"o":"m 621 0 l 621 122 l 601 122 b 363 -12 567 54 499 -12 b 93 267 217 -12 93 82 l 93 678 l 200 678 l 200 276 b 393 82 200 143 274 82 b 618 335 525 82 618 168 l 618 678 l 724 678 l 724 0 "},"ú":{"ha":825,"x_min":0,"x_max":0,"o":"m 547 972 l 440 792 l 338 792 l 417 972 m 621 0 l 621 122 l 601 122 b 363 -12 567 54 499 -12 b 93 267 217 -12 93 82 l 93 678 l 200 678 l 200 276 b 393 82 200 143 274 82 b 618 335 525 82 618 168 l 618 678 l 724 678 l 724 0 "},"ŭ":{"ha":825,"x_min":0,"x_max":0,"o":"m 574 972 l 574 938 b 411 781 574 839 507 781 b 249 938 315 781 249 839 l 249 972 l 336 972 l 336 944 b 411 867 336 899 361 867 b 486 944 461 867 486 899 l 486 972 m 621 0 l 621 122 l 601 122 b 363 -12 567 54 499 -12 b 93 267 217 -12 93 82 l 93 678 l 200 678 l 200 276 b 393 82 200 143 274 82 b 618 335 525 82 618 168 l 618 678 l 724 678 l 724 0 "},"û":{"ha":825,"x_min":0,"x_max":0,"o":"m 418 904 l 404 904 l 321 792 l 206 792 l 343 972 l 479 972 l 617 792 l 501 792 m 621 0 l 621 122 l 601 122 b 363 -12 567 54 499 -12 b 93 267 217 -12 93 82 l 93 678 l 200 678 l 200 276 b 393 82 200 143 274 82 b 618 335 525 82 618 168 l 618 678 l 724 678 l 724 0 "},"ü":{"ha":825,"x_min":0,"x_max":0,"o":"m 199 890 b 288 978 199 940 236 978 b 378 890 339 978 378 940 b 288 801 378 839 339 801 b 199 890 236 801 199 839 m 446 890 b 535 978 446 940 483 978 b 624 890 586 978 624 940 b 535 801 624 839 586 801 b 446 890 483 801 446 839 m 621 0 l 621 122 l 601 122 b 363 -12 567 54 499 -12 b 93 267 217 -12 93 82 l 93 678 l 200 678 l 200 276 b 393 82 200 143 274 82 b 618 335 525 82 618 168 l 618 678 l 724 678 l 724 0 "},"ù":{"ha":825,"x_min":0,"x_max":0,"o":"m 490 792 l 386 792 l 271 972 l 399 972 m 621 0 l 621 122 l 601 122 b 363 -12 567 54 499 -12 b 93 267 217 -12 93 82 l 93 678 l 200 678 l 200 276 b 393 82 200 143 274 82 b 618 335 525 82 618 168 l 618 678 l 724 678 l 724 0 "},"ű":{"ha":825,"x_min":0,"x_max":0,"o":"m 458 972 l 343 792 l 242 792 l 333 972 m 639 972 l 524 792 l 422 792 l 514 972 m 621 0 l 621 122 l 601 122 b 363 -12 567 54 499 -12 b 93 267 217 -12 93 82 l 93 678 l 200 678 l 200 276 b 393 82 200 143 274 82 b 618 335 525 82 618 168 l 618 678 l 724 678 l 724 0 "},"ū":{"ha":825,"x_min":0,"x_max":0,"o":"m 607 792 l 215 792 l 215 881 l 607 881 m 621 0 l 621 122 l 601 122 b 363 -12 567 54 499 -12 b 93 267 217 -12 93 82 l 93 678 l 200 678 l 200 276 b 393 82 200 143 274 82 b 618 335 525 82 618 168 l 618 678 l 724 678 l 724 0 "},"ų":{"ha":825,"x_min":0,"x_max":0,"o":"m 782 -146 l 782 -228 l 703 -228 b 604 -135 646 -228 604 -196 b 613 -74 604 -115 608 -96 l 628 0 l 621 0 l 621 122 l 601 122 b 363 -12 567 54 499 -12 b 93 267 217 -12 93 82 l 93 678 l 200 678 l 200 276 b 393 82 200 143 274 82 b 618 335 525 82 618 168 l 618 678 l 724 678 l 724 0 l 714 0 l 694 -90 b 692 -118 693 -104 692 -108 b 722 -146 692 -136 701 -146 "},"ů":{"ha":825,"x_min":0,"x_max":0,"o":"m 271 888 b 410 1022 271 965 331 1022 b 549 888 489 1022 549 965 b 410 753 549 808 488 753 b 271 888 332 753 271 810 m 350 888 b 410 826 350 853 374 826 b 471 888 446 826 471 853 b 410 949 471 922 446 949 b 350 888 374 949 350 922 m 621 0 l 621 122 l 601 122 b 363 -12 567 54 499 -12 b 93 267 217 -12 93 82 l 93 678 l 200 678 l 200 276 b 393 82 200 143 274 82 b 618 335 525 82 618 168 l 618 678 l 724 678 l 724 0 "},"v":{"ha":732,"x_min":0,"x_max":0,"o":"m 144 678 l 357 100 l 374 100 l 588 678 l 701 678 l 442 0 l 290 0 l 31 678 "},"w":{"ha":1081,"x_min":0,"x_max":0,"o":"m 160 678 l 288 103 l 304 103 l 464 678 l 615 678 l 775 103 l 792 103 l 921 678 l 1029 678 l 867 0 l 708 0 l 549 575 l 532 575 l 372 0 l 214 0 l 51 678 "},"ẃ":{"ha":1081,"x_min":0,"x_max":0,"o":"m 676 972 l 569 792 l 467 792 l 546 972 m 160 678 l 288 103 l 304 103 l 464 678 l 615 678 l 775 103 l 792 103 l 921 678 l 1029 678 l 867 0 l 708 0 l 549 575 l 532 575 l 372 0 l 214 0 l 51 678 "},"ŵ":{"ha":1081,"x_min":0,"x_max":0,"o":"m 547 904 l 533 904 l 450 792 l 335 792 l 472 972 l 608 972 l 746 792 l 631 792 m 160 678 l 288 103 l 304 103 l 464 678 l 615 678 l 775 103 l 792 103 l 921 678 l 1029 678 l 867 0 l 708 0 l 549 575 l 532 575 l 372 0 l 214 0 l 51 678 "},"ẅ":{"ha":1081,"x_min":0,"x_max":0,"o":"m 328 890 b 417 978 328 940 365 978 b 507 890 468 978 507 940 b 417 801 507 839 468 801 b 328 890 365 801 328 839 m 575 890 b 664 978 575 940 613 978 b 753 890 715 978 753 940 b 664 801 753 839 715 801 b 575 890 613 801 575 839 m 160 678 l 288 103 l 304 103 l 464 678 l 615 678 l 775 103 l 792 103 l 921 678 l 1029 678 l 867 0 l 708 0 l 549 575 l 532 575 l 372 0 l 214 0 l 51 678 "},"ẁ":{"ha":1081,"x_min":0,"x_max":0,"o":"m 619 792 l 515 792 l 400 972 l 528 972 m 160 678 l 288 103 l 304 103 l 464 678 l 615 678 l 775 103 l 792 103 l 921 678 l 1029 678 l 867 0 l 708 0 l 549 575 l 532 575 l 372 0 l 214 0 l 51 678 "},"x":{"ha":799,"x_min":0,"x_max":0,"o":"m 186 678 l 390 413 l 407 413 l 611 678 l 742 678 l 482 346 l 750 0 l 618 0 l 407 275 l 390 275 l 181 0 l 49 0 l 315 346 l 57 678 "},"y":{"ha":761,"x_min":0,"x_max":0,"o":"m 732 678 l 325 -278 l 211 -278 l 324 -18 l 31 678 l 144 678 l 374 126 l 388 126 l 617 678 "},"ý":{"ha":761,"x_min":0,"x_max":0,"o":"m 410 792 l 307 792 l 386 972 l 517 972 m 732 678 l 325 -278 l 211 -278 l 324 -18 l 31 678 l 144 678 l 374 126 l 388 126 l 617 678 "},"ŷ":{"ha":761,"x_min":0,"x_max":0,"o":"m 290 792 l 175 792 l 313 972 l 449 972 l 586 792 l 471 792 l 388 904 l 374 904 m 732 678 l 325 -278 l 211 -278 l 324 -18 l 31 678 l 144 678 l 374 126 l 388 126 l 617 678 "},"ÿ":{"ha":761,"x_min":0,"x_max":0,"o":"m 257 801 b 168 890 206 801 168 839 b 257 978 168 940 206 978 b 347 890 308 978 347 940 b 257 801 347 839 308 801 m 504 801 b 415 890 453 801 415 839 b 504 978 415 940 453 978 b 593 890 556 978 593 940 b 504 801 593 839 556 801 m 732 678 l 325 -278 l 211 -278 l 324 -18 l 31 678 l 144 678 l 374 126 l 388 126 l 617 678 "},"ỳ":{"ha":761,"x_min":0,"x_max":0,"o":"m 357 792 l 242 972 l 369 972 l 461 792 m 732 678 l 325 -278 l 211 -278 l 324 -18 l 31 678 l 144 678 l 374 126 l 388 126 l 617 678 "},"z":{"ha":735,"x_min":0,"x_max":0,"o":"m 667 678 l 667 596 l 211 92 l 678 92 l 678 0 l 69 0 l 69 83 l 525 588 l 82 588 l 82 678 "},"ź":{"ha":735,"x_min":0,"x_max":0,"o":"m 500 972 l 393 792 l 290 792 l 369 972 m 667 678 l 667 596 l 211 92 l 678 92 l 678 0 l 69 0 l 69 83 l 525 588 l 82 588 l 82 678 "},"ž":{"ha":735,"x_min":0,"x_max":0,"o":"m 569 972 l 432 792 l 296 792 l 158 972 l 274 972 l 357 860 l 371 860 l 454 972 m 667 678 l 667 596 l 211 92 l 678 92 l 678 0 l 69 0 l 69 83 l 525 588 l 82 588 l 82 678 "},"ż":{"ha":735,"x_min":0,"x_max":0,"o":"m 274 890 b 363 978 274 940 311 978 b 453 890 414 978 453 940 b 363 801 453 839 414 801 b 274 890 311 801 274 839 m 667 678 l 667 596 l 211 92 l 678 92 l 678 0 l 69 0 l 69 83 l 525 588 l 82 588 l 82 678 "},"π":{"ha":861,"x_min":0,"x_max":0,"o":"m 200 0 l 200 590 l 101 590 l 101 689 l 764 689 l 764 590 l 664 590 l 664 140 b 701 99 664 113 676 99 l 764 99 l 764 0 l 664 0 b 557 108 601 0 557 46 l 557 590 l 307 590 l 307 0 "},"⁄":{"ha":867,"x_min":0,"x_max":0,"o":"m 749 988 l 838 921 l 561 592 l 501 636 m 119 -15 l 31 51 l 306 381 l 365 336 "},"½":{"ha":988,"x_min":0,"x_max":0,"o":"m 749 988 l 838 921 l 561 592 l 501 636 m 281 972 l 281 486 l 189 486 l 189 858 l 175 858 l 106 756 l 18 756 l 18 769 l 154 972 m 747 504 b 954 339 868 504 954 439 b 768 169 954 236 885 196 b 618 76 671 146 626 124 l 951 76 l 951 0 l 524 0 l 524 42 b 718 235 524 142 588 204 b 863 339 818 257 863 282 b 746 428 863 392 815 428 b 617 311 669 428 618 388 l 526 311 b 747 504 529 433 619 504 m 119 -15 l 31 51 l 306 381 l 365 336 "},"¼":{"ha":976,"x_min":0,"x_max":0,"o":"m 749 988 l 838 921 l 561 592 l 501 636 m 281 972 l 281 486 l 189 486 l 189 858 l 175 858 l 106 756 l 18 756 l 18 769 l 154 972 m 861 486 l 861 190 l 969 190 l 969 115 l 861 115 l 861 0 l 769 0 l 769 115 l 469 115 l 469 185 l 719 486 m 574 190 l 769 190 l 769 406 l 757 406 m 119 -15 l 31 51 l 306 381 l 365 336 "},"¾":{"ha":1103,"x_min":0,"x_max":0,"o":"m 875 988 l 964 921 l 688 592 l 628 636 m 467 972 l 467 908 l 297 796 l 297 782 b 469 638 390 779 469 733 b 253 468 469 538 374 468 b 29 653 121 468 31 535 l 119 653 b 250 546 121 585 174 546 b 378 640 325 546 378 585 b 250 725 378 693 332 725 l 165 725 l 165 788 l 322 896 l 39 896 l 39 972 m 988 486 l 988 190 l 1096 190 l 1096 115 l 988 115 l 988 0 l 896 0 l 896 115 l 596 115 l 596 185 l 846 486 m 700 190 l 896 190 l 896 406 l 883 406 m 246 -15 l 157 51 l 432 381 l 492 336 "},"⅛":{"ha":999,"x_min":0,"x_max":0,"o":"m 749 988 l 838 921 l 561 592 l 501 636 m 281 972 l 281 486 l 189 486 l 189 858 l 175 858 l 106 756 l 18 756 l 18 769 l 154 972 m 532 369 b 746 504 532 449 619 504 b 960 369 872 504 960 449 l 960 365 b 871 257 960 297 906 267 l 871 243 b 968 128 910 235 968 201 l 968 125 b 746 -18 968 44 885 -18 b 524 125 607 -18 524 44 l 524 128 b 621 243 524 203 581 235 l 621 257 b 532 365 585 267 532 297 l 532 369 m 624 360 b 746 286 624 317 669 286 b 867 360 821 286 867 317 b 746 429 867 401 821 429 b 624 360 669 429 624 401 m 119 -15 l 31 51 l 306 381 l 365 336 m 615 135 b 746 57 615 85 665 57 b 875 135 825 57 875 85 b 746 211 875 185 825 211 b 615 135 665 211 615 185 "},"⅜":{"ha":1125,"x_min":0,"x_max":0,"o":"m 875 988 l 964 921 l 688 592 l 628 636 m 467 972 l 467 908 l 297 796 l 297 782 b 469 638 390 779 469 733 b 253 468 469 538 374 468 b 29 653 121 468 31 535 l 119 653 b 250 546 121 585 174 546 b 378 640 325 546 378 585 b 250 725 378 693 332 725 l 165 725 l 165 788 l 322 896 l 39 896 l 39 972 m 658 369 b 872 504 658 449 746 504 b 1086 369 999 504 1086 449 l 1086 365 b 997 257 1086 297 1032 267 l 997 243 b 1094 128 1036 235 1094 201 l 1094 125 b 872 -18 1094 44 1011 -18 b 650 125 733 -18 650 44 l 650 128 b 747 243 650 203 707 235 l 747 257 b 658 365 711 267 658 297 l 658 369 m 750 360 b 872 286 750 317 796 286 b 993 360 947 286 993 317 b 872 429 993 401 947 429 b 750 360 796 429 750 401 m 246 -15 l 157 51 l 432 381 l 492 336 m 742 135 b 872 57 742 85 792 57 b 1001 135 951 57 1001 85 b 872 211 1001 185 951 211 b 742 135 792 211 742 185 "},"⅝":{"ha":1122,"x_min":0,"x_max":0,"o":"m 872 988 l 961 921 l 685 592 l 625 636 m 456 972 l 456 896 l 138 896 l 138 768 l 151 768 b 289 814 171 782 210 814 b 472 650 390 814 472 753 l 472 644 b 257 468 472 543 389 468 b 32 639 128 468 49 540 l 125 639 b 257 544 135 588 181 544 b 381 646 333 544 381 588 b 268 740 381 704 332 740 b 160 694 207 740 175 711 l 49 694 l 49 972 m 656 369 b 869 504 656 449 743 504 b 1083 369 996 504 1083 449 l 1083 365 b 994 257 1083 297 1029 267 l 994 243 b 1092 128 1033 235 1092 201 l 1092 125 b 869 -18 1092 44 1008 -18 b 647 125 731 -18 647 44 l 647 128 b 744 243 647 203 704 235 l 744 257 b 656 365 708 267 656 297 l 656 369 m 747 360 b 869 286 747 317 793 286 b 990 360 944 286 990 317 b 869 429 990 401 944 429 b 747 360 793 429 747 401 m 243 -15 l 154 51 l 429 381 l 489 336 m 739 135 b 869 57 739 85 789 57 b 999 135 949 57 999 85 b 869 211 999 185 949 211 b 739 135 789 211 739 185 "},"⅞":{"ha":1022,"x_min":0,"x_max":0,"o":"m 772 988 l 861 921 l 585 592 l 525 636 m 429 972 l 429 901 l 215 486 l 115 486 l 326 896 l 10 896 l 10 972 m 556 369 b 769 504 556 449 643 504 b 983 369 896 504 983 449 l 983 365 b 894 257 983 297 929 267 l 894 243 b 992 128 933 235 992 201 l 992 125 b 769 -18 992 44 908 -18 b 547 125 631 -18 547 44 l 547 128 b 644 243 547 203 604 235 l 644 257 b 556 365 608 267 556 297 l 556 369 m 647 360 b 769 286 647 317 693 286 b 890 360 844 286 890 317 b 769 429 890 401 844 429 b 647 360 693 429 647 401 m 143 -15 l 54 51 l 329 381 l 389 336 m 639 135 b 769 57 639 85 689 57 b 899 135 849 57 899 85 b 769 211 899 185 849 211 b 639 135 689 211 639 185 "},".":{"ha":338,"x_min":0,"x_max":0,"o":"m 74 76 b 169 172 74 132 114 172 b 265 76 224 172 265 132 b 169 -19 265 21 224 -19 b 74 76 114 -19 74 21 "},",":{"ha":338,"x_min":0,"x_max":0,"o":"m 74 76 b 169 172 74 132 114 172 b 265 76 224 172 265 132 l 265 -62 b 160 -165 265 -126 222 -165 l 78 -165 l 78 -100 l 153 -100 b 190 -62 179 -100 190 -87 l 190 -12 b 167 -15 186 -14 178 -15 b 74 76 114 -15 74 24 "},":":{"ha":338,"x_min":0,"x_max":0,"o":"m 74 613 b 169 708 74 668 114 708 b 265 613 224 708 265 668 b 169 517 265 557 224 517 b 74 613 114 517 74 557 m 74 76 b 169 172 74 132 114 172 b 265 76 224 172 265 132 b 169 -19 265 21 224 -19 b 74 76 114 -19 74 21 "},";":{"ha":338,"x_min":0,"x_max":0,"o":"m 74 613 b 169 708 74 668 114 708 b 265 613 224 708 265 668 b 169 517 265 557 224 517 b 74 613 114 517 74 557 m 74 76 b 169 172 74 132 114 172 b 265 76 224 172 265 132 l 265 -62 b 160 -165 265 -126 222 -165 l 78 -165 l 78 -100 l 153 -100 b 190 -62 179 -100 190 -87 l 190 -12 b 167 -15 186 -14 178 -15 b 74 76 114 -15 74 24 "},"…":{"ha":821,"x_min":0,"x_max":0,"o":"m 74 76 b 169 172 74 132 114 172 b 265 76 224 172 265 132 b 169 -19 265 21 224 -19 b 74 76 114 -19 74 21 m 315 76 b 411 172 315 132 356 172 b 507 76 465 172 507 132 b 411 -19 507 21 465 -19 b 315 76 356 -19 315 21 m 557 76 b 653 172 557 132 597 172 b 749 76 707 172 749 132 b 653 -19 749 21 707 -19 b 557 76 597 -19 557 21 "},"!":{"ha":338,"x_min":0,"x_max":0,"o":"m 225 972 l 225 260 l 113 260 l 113 972 m 74 76 b 169 172 74 132 114 172 b 265 76 224 172 265 132 b 169 -19 265 21 224 -19 b 74 76 114 -19 74 21 "},"¡":{"ha":338,"x_min":0,"x_max":0,"o":"m 74 613 b 169 708 74 668 114 708 b 265 613 224 708 265 668 b 169 517 265 557 224 517 b 74 613 114 517 74 557 m 113 429 l 225 429 l 225 -278 l 113 -278 "},"?":{"ha":847,"x_min":0,"x_max":0,"o":"m 81 697 b 425 992 81 885 225 992 b 763 718 622 992 763 876 l 763 708 b 553 438 763 558 665 485 l 513 421 b 464 338 476 404 464 383 l 464 260 l 351 260 l 351 340 b 456 507 351 424 369 471 l 494 524 b 649 711 594 565 649 610 b 425 888 649 825 550 888 b 194 692 299 888 194 825 l 194 642 l 81 642 l 81 697 m 311 76 b 407 172 311 132 353 172 b 503 76 463 172 503 132 b 407 -19 503 21 463 -19 b 311 76 353 -19 311 21 "},"¿":{"ha":847,"x_min":0,"x_max":0,"o":"m 343 613 b 439 708 343 668 383 708 b 535 613 493 708 535 668 b 439 517 535 557 493 517 b 343 613 383 517 343 557 m 765 -3 b 419 -299 765 -192 619 -299 b 83 -25 222 -299 83 -182 l 83 -15 b 293 257 83 136 181 208 l 333 272 b 382 357 369 289 382 311 l 382 429 l 494 429 l 494 353 b 390 186 494 269 476 222 l 350 169 b 197 -18 251 128 197 83 b 419 -194 197 -131 296 -194 b 651 1 547 -194 651 -131 l 651 51 l 765 51 l 765 -3 "},"·":{"ha":338,"x_min":0,"x_max":0,"o":"m 74 486 b 169 582 74 542 114 582 b 265 486 224 582 265 542 b 169 390 265 431 224 390 b 74 486 114 390 74 431 "},"•":{"ha":431,"x_min":0,"x_max":0,"o":"m 53 486 b 215 649 53 575 126 649 b 378 486 304 649 378 575 b 215 324 378 399 304 324 b 53 486 128 324 53 397 "},"*":{"ha":861,"x_min":0,"x_max":0,"o":"m 275 678 l 336 658 l 343 675 l 274 714 l 151 836 l 222 907 l 344 785 l 383 715 l 400 722 l 381 783 l 381 972 l 481 972 l 481 783 l 461 722 l 478 715 l 517 785 l 639 907 l 710 836 l 588 714 l 518 675 l 525 658 l 586 678 l 775 678 l 775 578 l 586 578 l 525 597 l 518 581 l 588 542 l 710 419 l 639 349 l 517 471 l 478 540 l 461 533 l 481 472 l 481 283 l 381 283 l 381 472 l 400 533 l 383 540 l 344 471 l 222 349 l 151 419 l 274 542 l 343 581 l 336 597 l 275 578 l 86 578 l 86 678 "},"#":{"ha":861,"x_min":0,"x_max":0,"o":"m 229 690 l 229 972 l 331 972 l 331 690 l 531 690 l 531 972 l 632 972 l 632 690 l 806 690 l 806 596 l 632 596 l 632 376 l 806 376 l 806 282 l 632 282 l 632 0 l 531 0 l 531 282 l 331 282 l 331 0 l 229 0 l 229 282 l 56 282 l 56 376 l 229 376 l 229 596 l 56 596 l 56 690 m 331 376 l 531 376 l 531 596 l 331 596 "},"/":{"ha":657,"x_min":0,"x_max":0,"o":"m 583 972 l 175 -278 l 68 -278 l 476 972 "},"\\":{"ha":660,"x_min":0,"x_max":0,"o":"m 592 -278 l 485 -278 l 76 972 l 183 972 "},"(":{"ha":557,"x_min":0,"x_max":0,"o":"m 189 754 b 529 1122 189 1017 328 1122 l 529 1026 b 296 744 372 1022 296 933 l 296 33 b 529 -249 296 -156 372 -244 l 529 -344 b 189 25 328 -344 189 -239 "},")":{"ha":557,"x_min":0,"x_max":0,"o":"m 368 25 b 28 -344 368 -239 229 -344 l 28 -249 b 263 33 185 -244 263 -156 l 263 744 b 28 1026 263 933 185 1022 l 28 1122 b 368 754 229 1122 368 1017 l 368 25 "},"{":{"ha":529,"x_min":0,"x_max":0,"o":"m 190 456 b 228 496 215 456 228 469 l 228 1013 b 335 1119 228 1074 274 1119 l 483 1119 l 483 1024 l 372 1024 b 335 982 347 1024 335 1010 l 335 501 b 236 397 335 439 299 397 l 224 397 l 224 381 l 236 381 b 335 276 299 381 335 339 l 335 -204 b 372 -246 335 -232 347 -246 l 483 -246 l 483 -342 l 335 -342 b 228 -235 274 -342 228 -296 l 228 282 b 190 322 228 308 215 322 l 111 322 l 111 456 "},"}":{"ha":529,"x_min":0,"x_max":0,"o":"m 419 322 l 339 322 b 301 282 314 322 301 308 l 301 -235 b 194 -342 301 -296 257 -342 l 46 -342 l 46 -246 l 157 -246 b 194 -204 182 -246 194 -232 l 194 276 b 294 381 194 339 231 381 l 307 381 l 307 397 l 294 397 b 194 501 231 397 194 439 l 194 982 b 157 1024 194 1010 182 1024 l 46 1024 l 46 1119 l 194 1119 b 301 1013 257 1119 301 1074 l 301 496 b 339 456 301 469 314 456 l 419 456 "},"[":{"ha":490,"x_min":0,"x_max":0,"o":"m 189 1013 b 296 1119 189 1074 233 1119 l 444 1119 l 444 1024 l 333 1024 b 296 982 308 1024 296 1010 l 296 -204 b 333 -246 296 -232 308 -246 l 444 -246 l 444 -342 l 296 -342 b 189 -235 233 -342 189 -296 l 189 1013 "},"]":{"ha":490,"x_min":0,"x_max":0,"o":"m 301 -235 b 194 -342 301 -296 257 -342 l 46 -342 l 46 -246 l 157 -246 b 194 -204 182 -246 194 -232 l 194 982 b 157 1024 194 1010 182 1024 l 46 1024 l 46 1119 l 194 1119 b 301 1013 257 1119 301 1074 "},"-":{"ha":639,"x_min":0,"x_max":0,"o":"m 114 406 l 525 406 l 525 307 l 114 307 "},"–":{"ha":850,"x_min":0,"x_max":0,"o":"m 114 406 l 736 406 l 736 307 l 114 307 "},"—":{"ha":1272,"x_min":0,"x_max":0,"o":"m 114 406 l 1158 406 l 1158 307 l 114 307 "},"_":{"ha":861,"x_min":0,"x_max":0,"o":"m 107 -67 l 754 -67 l 754 -165 l 107 -165 "},"‚":{"ha":338,"x_min":0,"x_max":0,"o":"m 74 76 b 169 172 74 132 114 172 b 265 76 224 172 265 132 l 265 -62 b 160 -165 265 -126 222 -165 l 78 -165 l 78 -100 l 153 -100 b 190 -62 179 -100 190 -87 l 190 -12 b 167 -15 186 -14 178 -15 b 74 76 114 -15 74 24 "},"„":{"ha":567,"x_min":0,"x_max":0,"o":"m 74 76 b 169 172 74 132 114 172 b 265 76 224 172 265 132 l 265 -62 b 160 -165 265 -126 222 -165 l 78 -165 l 78 -100 l 153 -100 b 190 -62 179 -100 190 -87 l 190 -12 b 167 -15 186 -14 178 -15 b 74 76 114 -15 74 24 m 301 76 b 397 172 301 132 342 172 b 493 76 453 172 493 132 l 493 -62 b 388 -165 493 -126 450 -165 l 306 -165 l 306 -100 l 381 -100 b 419 -62 407 -100 419 -87 l 419 -12 b 394 -15 414 -14 407 -15 b 301 76 342 -15 301 24 "},"“":{"ha":567,"x_min":0,"x_max":0,"o":"m 265 753 b 169 657 265 697 224 657 b 74 753 114 657 74 697 l 74 892 b 179 994 74 956 115 994 l 260 994 l 260 928 l 186 928 b 147 892 158 928 147 917 l 147 842 b 172 844 151 843 160 844 b 265 753 224 844 265 806 m 493 753 b 397 657 493 697 453 657 b 301 753 342 657 301 697 l 301 892 b 407 994 301 956 344 994 l 489 994 l 489 928 l 414 928 b 375 892 388 928 375 917 l 375 842 b 400 844 381 843 388 844 b 493 753 453 844 493 806 "},"”":{"ha":567,"x_min":0,"x_max":0,"o":"m 74 897 b 169 994 74 954 114 994 b 265 899 224 994 265 954 l 265 760 b 160 657 265 696 222 657 l 78 657 l 78 722 l 153 722 b 190 760 179 722 190 733 l 190 810 b 167 807 186 808 178 807 b 74 897 114 807 74 844 m 301 897 b 397 994 301 954 342 994 b 493 899 453 994 493 954 l 493 760 b 388 657 493 696 450 657 l 306 657 l 306 722 l 381 722 b 419 760 407 722 419 733 l 419 810 b 394 807 414 808 407 807 b 301 897 342 807 301 844 "},"‘":{"ha":338,"x_min":0,"x_max":0,"o":"m 265 753 b 169 657 265 697 224 657 b 74 753 114 657 74 697 l 74 892 b 179 994 74 956 115 994 l 260 994 l 260 928 l 186 928 b 147 892 158 928 147 917 l 147 842 b 172 844 151 843 160 844 b 265 753 224 844 265 806 "},"’":{"ha":338,"x_min":0,"x_max":0,"o":"m 74 897 b 169 994 74 954 114 994 b 265 899 224 994 265 954 l 265 760 b 160 657 265 696 222 657 l 78 657 l 78 722 l 153 722 b 190 760 179 722 190 733 l 190 810 b 167 807 186 808 178 807 b 74 897 114 807 74 844 "},"«":{"ha":1083,"x_min":0,"x_max":0,"o":"m 531 653 l 539 653 l 539 532 l 201 347 l 201 331 l 539 146 l 539 25 l 531 25 l 94 279 l 94 399 m 975 653 l 983 653 l 983 532 l 644 347 l 644 331 l 983 146 l 983 25 l 975 25 l 539 279 l 539 399 "},"»":{"ha":1083,"x_min":0,"x_max":0,"o":"m 539 279 l 103 25 l 94 25 l 94 146 l 433 331 l 433 347 l 94 532 l 94 653 l 103 653 l 539 399 m 983 279 l 547 25 l 539 25 l 539 146 l 876 331 l 876 347 l 539 532 l 539 653 l 547 653 l 983 399 "},"‹":{"ha":667,"x_min":0,"x_max":0,"o":"m 558 653 l 567 653 l 567 532 l 196 347 l 196 331 l 567 146 l 567 25 l 558 25 l 94 276 l 94 401 "},"›":{"ha":667,"x_min":0,"x_max":0,"o":"m 572 276 l 108 25 l 100 25 l 100 146 l 472 331 l 472 347 l 100 532 l 100 653 l 108 653 l 572 401 "},"\"":{"ha":567,"x_min":0,"x_max":0,"o":"m 74 897 b 169 994 74 954 114 994 b 265 899 224 994 265 954 l 265 760 b 160 657 265 696 222 657 l 78 657 l 78 722 l 153 722 b 190 760 179 722 190 733 l 190 810 b 167 807 186 808 178 807 b 74 897 114 807 74 844 m 301 897 b 397 994 301 954 342 994 b 493 899 453 994 493 954 l 493 760 b 388 657 493 696 450 657 l 306 657 l 306 722 l 381 722 b 419 760 407 722 419 733 l 419 810 b 394 807 414 808 407 807 b 301 897 342 807 301 844 "},"'":{"ha":338,"x_min":0,"x_max":0,"o":"m 74 897 b 169 994 74 954 114 994 b 265 899 224 994 265 954 l 265 760 b 160 657 265 696 222 657 l 78 657 l 78 722 l 153 722 b 190 760 179 722 190 733 l 190 810 b 167 807 186 808 178 807 b 74 897 114 807 74 844 "}," ":{"ha":429,"x_min":0,"x_max":0,"o":""},"¢":{"ha":849,"x_min":0,"x_max":0,"o":"m 674 622 l 674 640 b 493 886 674 775 611 865 l 493 86 b 674 331 619 104 674 194 l 674 356 l 788 356 l 788 326 b 493 -17 788 131 681 3 l 493 -161 l 389 -161 l 389 -17 b 72 388 192 4 72 149 l 72 585 b 389 989 72 819 192 967 l 389 1133 l 493 1133 l 493 989 b 788 643 683 969 788 839 l 788 622 m 185 383 b 389 86 185 217 257 108 l 389 886 b 185 589 257 864 185 753 l 185 383 "},"¤":{"ha":861,"x_min":0,"x_max":0,"o":"m 142 846 l 224 764 b 431 833 281 806 353 833 b 638 764 508 833 581 806 l 719 846 l 790 775 l 708 693 b 778 486 750 636 778 564 b 708 279 778 408 750 336 l 790 197 l 719 126 l 638 208 b 431 139 581 163 508 139 b 224 208 353 139 281 163 l 142 126 l 71 197 l 153 279 b 83 486 107 336 83 408 b 153 693 83 564 107 636 l 71 775 m 183 486 b 431 235 183 339 292 235 b 678 486 569 235 678 340 b 431 738 678 633 569 738 b 183 486 292 738 183 632 "},"$":{"ha":850,"x_min":0,"x_max":0,"o":"m 496 542 b 781 272 669 501 781 428 l 781 261 b 489 -17 781 103 660 0 l 489 -161 l 385 -161 l 385 -17 b 58 339 179 0 58 126 l 58 374 l 172 374 l 172 344 b 385 88 172 189 250 104 l 385 460 b 100 725 210 500 100 564 l 100 733 b 385 990 100 876 222 975 l 385 1133 l 489 1133 l 489 988 b 776 697 656 968 776 867 l 776 642 l 664 642 l 664 690 b 489 882 664 803 589 865 l 489 543 l 496 542 m 214 728 b 385 569 214 632 281 597 l 385 885 b 214 728 289 872 214 815 m 489 88 b 667 264 604 104 667 175 b 489 432 667 357 599 401 l 489 88 "},"€":{"ha":926,"x_min":0,"x_max":0,"o":"m 753 622 l 753 640 b 518 890 753 794 669 890 b 265 622 365 890 275 788 l 518 622 l 518 532 l 264 532 l 264 451 l 518 451 l 518 361 l 264 361 b 518 82 271 188 363 82 b 753 331 682 82 753 176 l 753 356 l 865 356 l 865 326 b 518 -19 865 113 739 -19 b 151 361 299 -19 161 118 l 50 361 l 50 451 l 151 451 l 151 532 l 50 532 l 50 622 l 153 622 b 518 992 165 854 303 992 b 865 643 743 992 865 857 l 865 622 "},"ƒ":{"ha":861,"x_min":0,"x_max":0,"o":"m 374 607 l 374 865 b 479 972 374 926 417 972 l 725 972 l 725 874 l 517 874 b 479 832 492 874 479 860 l 479 607 l 675 607 l 675 510 l 479 510 l 479 107 b 374 0 479 46 436 0 l 136 0 l 136 99 l 336 99 b 374 140 361 99 374 113 l 374 510 l 186 510 l 186 607 "},"£":{"ha":872,"x_min":0,"x_max":0,"o":"m 185 525 l 185 692 b 476 992 185 889 299 992 b 776 692 660 992 776 885 l 776 610 l 665 610 l 665 692 b 479 890 665 814 597 890 b 294 692 361 890 294 815 l 294 525 l 469 525 l 469 428 l 294 428 l 294 101 l 782 101 l 782 0 l 82 0 l 82 101 l 185 101 l 185 428 l 88 428 l 88 525 "},"¥":{"ha":861,"x_min":0,"x_max":0,"o":"m 549 474 l 711 474 l 711 383 l 488 383 l 488 303 l 711 303 l 711 213 l 488 213 l 488 0 l 374 0 l 374 213 l 150 213 l 150 303 l 374 303 l 374 383 l 150 383 l 150 474 l 313 474 l 25 972 l 156 972 l 422 504 l 439 504 l 706 972 l 838 972 "},"+":{"ha":861,"x_min":0,"x_max":0,"o":"m 379 536 l 379 776 l 482 776 l 482 536 l 721 536 l 721 436 l 482 436 l 482 196 l 379 196 l 379 436 l 140 436 l 140 536 "},"−":{"ha":861,"x_min":0,"x_max":0,"o":"m 721 536 l 721 436 l 140 436 l 140 536 "},"×":{"ha":861,"x_min":0,"x_max":0,"o":"m 226 761 l 431 556 l 635 761 l 706 690 l 500 486 l 706 282 l 635 211 l 431 417 l 226 211 l 156 282 l 361 486 l 156 690 "},"÷":{"ha":861,"x_min":0,"x_max":0,"o":"m 333 715 b 431 813 333 769 376 813 b 528 715 483 813 528 771 b 431 619 528 661 485 619 b 333 715 378 619 333 660 m 721 536 l 721 436 l 140 436 l 140 536 m 333 257 b 431 353 333 311 376 353 b 528 257 483 353 528 311 b 431 160 528 203 485 160 b 333 257 378 160 333 201 "},"=":{"ha":861,"x_min":0,"x_max":0,"o":"m 140 635 l 721 635 l 721 538 l 140 538 m 140 436 l 721 436 l 721 338 l 140 338 "},"≠":{"ha":861,"x_min":0,"x_max":0,"o":"m 140 635 l 426 635 l 475 782 l 571 753 l 532 635 l 721 635 l 721 538 l 501 538 l 467 436 l 721 436 l 721 338 l 436 338 l 383 176 l 286 207 l 329 338 l 140 338 l 140 436 l 361 436 l 394 538 l 140 538 "},">":{"ha":861,"x_min":0,"x_max":0,"o":"m 139 181 l 139 296 l 614 478 l 614 494 l 139 676 l 139 792 l 722 554 l 722 418 "},"<":{"ha":861,"x_min":0,"x_max":0,"o":"m 139 554 l 722 792 l 722 676 l 249 494 l 249 478 l 722 296 l 722 181 l 139 418 "},"≥":{"ha":861,"x_min":0,"x_max":0,"o":"m 139 181 l 139 296 l 614 478 l 614 494 l 139 676 l 139 792 l 722 554 l 722 418 m 139 0 l 139 99 l 722 99 l 722 0 "},"≤":{"ha":861,"x_min":0,"x_max":0,"o":"m 139 554 l 722 792 l 722 676 l 249 494 l 249 478 l 722 296 l 722 181 l 139 418 m 139 99 l 722 99 l 722 0 l 139 0 "},"±":{"ha":861,"x_min":0,"x_max":0,"o":"m 140 536 l 381 536 l 381 776 l 481 776 l 481 536 l 721 536 l 721 436 l 481 436 l 481 196 l 381 196 l 381 436 l 140 436 m 140 99 l 721 99 l 721 0 l 140 0 "},"≈":{"ha":861,"x_min":0,"x_max":0,"o":"m 465 636 b 521 588 485 606 494 588 b 565 610 539 588 550 597 l 672 699 l 736 621 l 617 525 b 510 475 586 500 553 475 b 399 550 453 475 425 506 b 343 599 379 582 369 599 b 299 576 325 599 314 590 l 192 488 l 128 565 l 247 661 b 353 711 276 688 311 711 b 465 636 411 711 439 681 m 465 390 b 521 342 485 360 494 342 b 565 364 539 342 550 351 l 672 453 l 736 376 l 617 279 b 510 231 586 254 553 231 b 399 306 453 231 425 261 b 343 354 379 336 369 354 b 299 332 325 354 314 344 l 189 242 l 126 318 l 247 417 b 353 465 276 442 311 465 b 465 390 411 465 439 435 "},"~":{"ha":861,"x_min":0,"x_max":0,"o":"m 464 499 b 518 450 483 468 492 450 b 563 472 536 450 547 460 l 679 567 l 742 490 l 614 388 b 510 338 583 363 551 338 b 397 413 451 338 424 369 b 344 461 378 444 369 461 b 299 440 326 461 314 453 l 182 344 l 119 422 l 247 524 b 353 574 278 549 311 574 b 464 499 410 574 438 543 "},"¬":{"ha":861,"x_min":0,"x_max":0,"o":"m 140 536 l 721 536 l 721 322 l 624 322 l 624 436 l 140 436 "},"^":{"ha":861,"x_min":0,"x_max":0,"o":"m 758 589 l 631 589 l 439 899 l 422 899 l 232 589 l 103 589 l 346 972 l 515 972 "},"∞":{"ha":861,"x_min":0,"x_max":0,"o":"m 79 486 b 275 688 79 593 167 688 b 418 611 340 688 390 654 l 443 611 b 586 688 471 654 521 688 b 783 486 694 688 783 597 b 586 286 783 372 688 286 b 443 361 521 286 471 318 l 418 361 b 275 286 390 318 340 286 b 79 486 168 286 79 379 m 382 486 b 279 589 382 542 335 589 b 178 486 224 589 178 542 b 279 385 178 431 224 385 b 382 486 335 385 382 431 m 481 486 b 582 385 481 431 526 385 b 685 486 638 385 685 431 b 582 589 685 542 638 589 b 481 486 526 589 481 542 "},"∅":{"ha":889,"x_min":0,"x_max":0,"o":"m 639 660 b 813 351 744 600 813 489 l 813 338 b 444 -19 813 128 656 -19 b 349 -8 411 -19 379 -15 l 293 -137 l 197 -96 l 251 29 b 76 338 144 89 76 200 l 76 351 b 444 708 76 561 233 708 b 542 697 478 708 511 704 l 597 826 l 693 785 l 639 660 m 183 336 b 292 124 183 242 225 167 l 500 603 b 444 608 482 607 464 608 b 183 353 296 608 183 499 l 183 336 m 706 353 b 597 564 706 444 664 519 l 390 85 b 444 81 407 82 425 81 b 706 336 593 81 706 188 "},"∫":{"ha":861,"x_min":0,"x_max":0,"o":"m 483 -171 b 378 -278 483 -232 440 -278 l 211 -278 l 211 -179 l 340 -179 b 378 -137 365 -179 378 -165 l 378 865 b 483 972 378 926 421 972 l 651 972 l 651 874 l 521 874 b 483 832 496 874 483 860 "},"∏":{"ha":861,"x_min":0,"x_max":0,"o":"m 107 972 l 754 972 l 754 0 l 639 0 l 639 865 l 222 865 l 222 0 l 107 0 "},"∑":{"ha":861,"x_min":0,"x_max":0,"o":"m 106 972 l 756 972 l 756 868 l 267 868 l 267 853 l 543 526 l 543 446 l 267 121 l 267 104 l 756 104 l 756 0 l 106 0 l 106 100 l 429 478 l 429 494 l 106 872 "},"√":{"ha":861,"x_min":0,"x_max":0,"o":"m 68 535 l 288 535 l 406 99 l 421 99 l 696 1189 l 808 1189 l 507 0 l 318 0 l 201 436 l 68 436 "},"∂":{"ha":861,"x_min":0,"x_max":0,"o":"m 85 353 b 415 708 85 556 226 708 b 613 610 510 708 579 667 l 629 610 b 229 890 588 774 411 869 l 253 992 b 776 382 593 944 776 725 b 431 -19 776 142 650 -19 b 85 336 228 -19 85 131 l 85 353 m 431 82 b 667 353 576 82 667 194 b 431 607 667 501 564 607 b 194 353 293 607 194 497 l 194 336 b 431 82 194 186 293 82 "},"µ":{"ha":825,"x_min":0,"x_max":0,"o":"m 101 689 l 208 689 l 208 288 b 401 76 208 147 275 76 b 626 329 543 76 626 168 l 626 689 l 732 689 l 732 0 l 629 0 l 629 122 l 613 122 b 397 -19 576 35 513 -19 b 224 60 310 -19 254 18 l 208 60 l 208 -278 l 101 -278 "},"%":{"ha":1085,"x_min":0,"x_max":0,"o":"m 72 769 b 296 990 72 907 154 990 b 519 769 433 990 519 907 l 519 743 b 296 524 519 606 438 524 b 72 743 154 524 72 606 l 72 769 m 856 988 l 944 921 l 669 592 l 610 638 m 165 738 b 296 603 165 656 211 603 b 426 738 381 603 426 656 l 426 776 b 296 911 426 858 381 911 b 165 776 211 911 165 858 m 565 228 b 789 449 565 365 647 449 b 1013 228 926 449 1013 365 l 1013 201 b 789 -18 1013 64 931 -18 b 565 201 647 -18 565 64 l 565 228 m 226 -14 l 138 51 l 414 381 l 474 336 m 658 196 b 789 61 658 114 704 61 b 919 196 875 61 919 114 l 919 235 b 789 369 919 317 875 369 b 658 235 704 369 658 317 "},"‰":{"ha":1439,"x_min":0,"x_max":0,"o":"m 296 990 b 519 769 433 990 519 907 l 519 743 b 296 524 519 606 438 524 b 72 743 154 524 72 606 l 72 769 b 296 990 72 907 154 990 m 669 592 l 610 638 l 856 988 l 944 921 m 426 776 b 296 911 426 858 381 911 b 165 776 211 911 165 858 l 165 738 b 296 603 165 656 211 603 b 426 738 381 603 426 656 m 1149 449 b 1368 228 1281 449 1368 365 l 1368 201 b 1149 -18 1368 64 1285 -18 b 967 71 1065 -18 1003 14 b 783 -18 931 14 868 -18 b 565 201 647 -18 565 64 l 565 228 b 783 449 565 365 647 449 b 967 358 865 449 929 417 b 1149 449 1001 417 1064 449 m 414 381 l 474 336 l 226 -14 l 138 51 m 919 235 b 789 369 919 317 875 369 b 658 235 704 369 658 317 l 658 196 b 789 61 658 114 704 61 b 919 196 875 61 919 114 m 1274 235 b 1143 369 1274 317 1229 369 b 1013 235 1058 369 1013 317 l 1013 196 b 1143 61 1013 114 1058 61 b 1274 196 1229 61 1274 114 "},"↑":{"ha":861,"x_min":0,"x_max":0,"o":"m 389 981 l 475 981 l 806 651 l 732 578 l 524 785 l 494 828 l 482 824 l 486 771 l 486 0 l 378 0 l 378 771 l 383 824 l 371 828 l 340 785 l 133 578 l 60 651 "},"↗":{"ha":850,"x_min":0,"x_max":0,"o":"m 685 678 l 744 618 l 744 153 l 643 153 l 643 447 l 651 497 l 639 503 l 607 464 l 125 -18 l 49 58 l 529 540 l 569 574 l 563 585 l 513 576 l 219 576 l 218 678 "},"→":{"ha":1111,"x_min":0,"x_max":0,"o":"m 1042 393 l 1042 308 l 713 -22 l 639 51 l 849 261 l 890 290 l 886 303 l 835 299 l 69 299 l 69 403 l 835 403 l 886 399 l 890 411 l 849 440 l 639 650 l 713 724 "},"↘":{"ha":850,"x_min":0,"x_max":0,"o":"m 219 101 l 513 101 l 563 93 l 569 104 l 529 138 l 49 619 l 125 696 l 607 215 l 639 175 l 651 181 l 643 232 l 643 525 l 744 526 l 744 60 l 685 0 l 218 0 "},"↓":{"ha":861,"x_min":0,"x_max":0,"o":"m 133 394 l 340 188 l 371 144 l 383 149 l 378 201 l 378 972 l 486 972 l 486 201 l 482 149 l 494 144 l 524 188 l 732 394 l 806 321 l 475 -8 l 389 -8 l 60 321 "},"↙":{"ha":850,"x_min":0,"x_max":0,"o":"m 167 0 l 107 60 l 107 526 l 208 525 l 208 232 l 200 181 l 211 175 l 244 215 l 725 696 l 801 619 l 321 138 l 281 104 l 288 93 l 338 101 l 632 101 l 632 0 "},"←":{"ha":1111,"x_min":0,"x_max":0,"o":"m 472 650 l 263 440 l 221 411 l 225 399 l 276 403 l 1042 403 l 1042 299 l 276 299 l 225 303 l 221 290 l 263 261 l 472 51 l 399 -22 l 69 308 l 69 393 l 399 724 "},"↖":{"ha":850,"x_min":0,"x_max":0,"o":"m 632 576 l 338 576 l 288 585 l 281 574 l 321 540 l 801 58 l 725 -18 l 244 464 l 211 503 l 200 497 l 208 447 l 208 153 l 107 153 l 107 618 l 167 678 l 632 678 "},"↔":{"ha":1111,"x_min":0,"x_max":0,"o":"m 1042 388 l 1042 303 l 717 -22 l 643 51 l 849 256 l 890 285 l 886 297 l 835 293 l 276 293 l 225 297 l 221 285 l 263 256 l 468 51 l 394 -22 l 69 303 l 69 388 l 394 713 l 468 640 l 263 435 l 221 406 l 225 393 l 276 397 l 835 397 l 886 393 l 890 406 l 849 435 l 643 640 l 717 713 "},"↕":{"ha":861,"x_min":0,"x_max":0,"o":"m 732 394 l 806 321 l 475 -8 l 389 -8 l 60 321 l 133 394 l 340 188 l 371 144 l 383 149 l 378 201 l 378 771 l 383 824 l 371 828 l 340 785 l 133 578 l 60 651 l 389 981 l 475 981 l 806 651 l 732 578 l 524 785 l 494 828 l 482 824 l 486 771 l 486 201 l 482 149 l 494 144 l 524 188 "},"◊":{"ha":861,"x_min":0,"x_max":0,"o":"m 346 972 l 515 972 l 779 486 l 515 0 l 346 0 l 82 486 m 422 82 l 439 82 l 657 486 l 439 890 l 422 890 l 204 486 "},"@":{"ha":1426,"x_min":0,"x_max":0,"o":"m 114 701 b 385 972 114 876 210 972 l 1051 972 b 1313 713 1222 972 1313 883 l 1313 124 b 1189 0 1313 46 1268 0 l 1008 0 b 908 93 944 0 908 36 l 908 117 l 892 117 b 683 -19 869 58 813 -19 b 396 322 518 -19 396 128 l 396 346 b 679 689 396 543 517 689 b 886 556 808 689 863 611 l 904 556 l 904 669 l 1007 669 l 1007 129 b 1042 94 1007 104 1018 94 l 1153 94 b 1207 150 1192 94 1207 111 l 1207 718 b 1050 875 1207 821 1153 875 l 397 875 b 219 699 279 875 219 815 l 219 -4 b 397 -181 219 -121 279 -181 l 1290 -181 l 1290 -278 l 385 -278 b 114 -7 210 -278 114 -182 m 504 326 b 703 79 504 175 585 79 b 903 326 821 79 903 172 l 903 342 b 703 590 903 496 821 590 b 504 343 585 590 504 494 l 504 326 "},"&":{"ha":954,"x_min":0,"x_max":0,"o":"m 67 258 b 229 531 67 379 149 472 l 229 547 b 147 740 179 607 147 665 l 147 749 b 418 992 147 886 251 992 b 693 731 586 992 693 888 l 693 689 l 579 689 l 579 726 b 417 890 579 833 515 890 b 261 746 321 890 261 832 l 261 740 b 433 485 261 650 336 582 l 625 297 l 643 297 l 790 565 l 913 565 l 718 222 l 718 204 l 926 0 l 781 0 l 661 118 l 643 118 b 365 -21 575 36 489 -21 b 67 258 176 -21 67 110 m 181 263 b 371 82 181 169 251 82 b 571 189 457 82 518 122 l 571 207 l 317 456 l 300 456 b 181 268 236 414 181 351 l 181 263 "},"¶":{"ha":790,"x_min":0,"x_max":0,"o":"m 39 701 b 344 967 39 868 165 967 l 688 967 l 688 0 l 586 0 l 586 874 l 463 874 l 463 0 l 363 0 l 363 419 l 342 419 b 39 686 164 419 39 521 l 39 701 m 140 689 b 340 513 140 588 207 513 l 363 513 l 363 874 l 340 874 b 140 697 207 874 140 799 "},"§":{"ha":693,"x_min":0,"x_max":0,"o":"m 93 785 b 342 992 93 915 204 992 b 610 767 500 992 610 911 l 610 722 l 508 722 l 508 758 b 343 899 508 850 435 899 b 196 783 261 899 196 863 b 381 644 196 694 267 668 b 619 443 536 613 619 558 b 585 328 619 397 608 360 b 617 217 606 294 617 258 l 617 207 b 357 -19 617 74 528 -19 b 60 256 174 -19 60 86 l 60 285 l 161 285 l 161 261 b 357 74 161 146 229 74 b 515 206 458 74 515 126 b 339 339 515 286 465 317 b 93 549 172 368 93 431 b 131 661 93 593 103 628 b 93 778 106 693 93 732 l 93 785 m 376 429 b 503 392 436 418 468 408 b 515 438 510 403 515 418 b 342 556 515 504 463 533 b 210 599 289 565 244 582 b 196 549 201 586 196 568 b 376 429 196 481 247 451 "},"©":{"ha":1006,"x_min":0,"x_max":0,"o":"m 103 706 b 360 972 103 886 196 972 l 646 972 b 903 706 810 972 903 886 l 903 267 b 646 0 903 88 810 0 l 360 0 b 103 267 196 0 103 88 l 103 706 m 197 272 b 364 89 197 151 247 89 l 642 89 b 808 272 758 89 808 151 l 808 700 b 642 885 808 821 758 885 l 364 885 b 197 700 247 885 197 821 m 306 567 b 508 792 306 714 389 792 b 704 589 635 792 704 710 l 704 563 l 610 563 l 610 597 b 510 704 610 658 582 704 b 401 586 446 704 401 664 l 401 383 b 510 271 401 310 450 271 b 610 381 572 271 610 306 l 610 410 l 704 410 l 704 383 b 510 183 704 265 639 183 b 306 403 385 183 306 258 l 306 567 "},"®":{"ha":861,"x_min":0,"x_max":0,"o":"m 139 703 b 431 992 139 872 264 992 b 722 703 597 992 722 872 b 431 414 722 533 597 414 b 139 703 264 414 139 533 m 196 703 b 431 468 196 561 289 468 b 665 703 572 468 665 561 b 431 938 665 844 572 938 b 196 703 289 938 196 844 m 449 860 b 553 774 517 860 553 819 b 497 696 553 736 536 710 l 497 688 b 542 640 528 685 542 663 l 542 551 l 488 551 l 488 636 b 458 665 488 654 476 665 l 385 665 l 385 551 l 331 551 l 331 860 m 385 715 l 450 715 b 499 764 481 715 499 738 b 450 811 499 789 481 811 l 385 811 "},"™":{"ha":861,"x_min":0,"x_max":0,"o":"m 356 972 l 356 924 l 251 924 l 251 664 l 196 664 l 196 924 l 92 924 l 92 972 m 496 972 l 571 713 l 576 713 l 651 972 l 750 972 l 750 664 l 696 664 l 696 924 l 690 924 l 615 664 l 532 664 l 457 924 l 451 924 l 451 664 l 397 664 l 397 972 "},"°":{"ha":529,"x_min":0,"x_max":0,"o":"m 72 806 b 265 994 72 914 158 994 b 457 806 374 994 457 918 b 265 618 457 693 367 618 b 72 806 161 618 72 699 m 165 806 b 265 707 165 747 208 707 b 364 806 321 707 364 747 b 265 904 364 865 321 904 b 165 806 208 904 165 865 "},"′":{"ha":431,"x_min":0,"x_max":0,"o":"m 290 972 l 218 619 l 147 619 l 161 972 "},"″":{"ha":611,"x_min":0,"x_max":0,"o":"m 285 972 l 213 619 l 140 619 l 154 972 m 478 972 l 407 619 l 333 619 l 347 972 "},"|":{"ha":311,"x_min":0,"x_max":0,"o":"m 208 -342 l 103 -342 l 103 1119 l 208 1119 "},"¦":{"ha":311,"x_min":0,"x_max":0,"o":"m 103 508 l 103 1119 l 208 1119 l 208 508 m 208 269 l 208 -342 l 103 -342 l 103 269 "},"†":{"ha":861,"x_min":0,"x_max":0,"o":"m 138 710 l 374 710 l 374 972 l 488 972 l 488 710 l 724 710 l 724 607 l 488 607 l 488 0 l 374 0 l 374 607 l 138 607 "},"‡":{"ha":861,"x_min":0,"x_max":0,"o":"m 138 371 l 374 371 l 374 607 l 138 607 l 138 710 l 374 710 l 374 972 l 488 972 l 488 710 l 724 710 l 724 607 l 488 607 l 488 371 l 724 371 l 724 263 l 488 263 l 488 0 l 374 0 l 374 263 l 138 263 "},"̈":{"ha":0,"x_min":0,"x_max":0,"o":"m -499 890 b -410 978 -499 940 -461 978 b -319 890 -358 978 -319 940 b -410 801 -319 839 -358 801 b -499 890 -461 801 -499 839 m -251 890 b -162 978 -251 940 -214 978 b -74 890 -111 978 -74 940 b -162 801 -74 839 -111 801 b -251 890 -214 801 -251 839 "},"̇":{"ha":0,"x_min":0,"x_max":0,"o":"m -253 890 b -164 978 -253 940 -215 978 b -74 890 -112 978 -74 940 b -164 801 -74 839 -112 801 b -253 890 -215 801 -253 839 "},"̀":{"ha":0,"x_min":0,"x_max":0,"o":"m -74 792 l -178 792 l -293 972 l -165 972 "},"́":{"ha":0,"x_min":0,"x_max":0,"o":"m -78 972 l -185 792 l -287 792 l -208 972 "},"̋":{"ha":0,"x_min":0,"x_max":0,"o":"m -254 972 l -369 792 l -471 792 l -379 972 m -74 972 l -189 792 l -290 792 l -199 972 "},"̂":{"ha":0,"x_min":0,"x_max":0,"o":"m -272 904 l -286 904 l -369 792 l -485 792 l -347 972 l -211 972 l -74 792 l -189 792 "},"̌":{"ha":0,"x_min":0,"x_max":0,"o":"m -74 972 l -211 792 l -347 792 l -485 972 l -369 972 l -286 860 l -272 860 l -189 972 "},"̆":{"ha":0,"x_min":0,"x_max":0,"o":"m -74 972 l -74 938 b -236 781 -74 839 -140 781 b -399 938 -332 781 -399 839 l -399 972 l -311 972 l -311 944 b -236 867 -311 899 -286 867 b -161 944 -186 867 -161 899 l -161 972 "},"̊":{"ha":0,"x_min":0,"x_max":0,"o":"m -351 888 b -212 1022 -351 965 -292 1022 b -74 888 -133 1022 -74 965 b -212 753 -74 808 -135 753 b -351 888 -290 753 -351 810 m -272 888 b -212 826 -272 853 -249 826 b -151 888 -176 826 -151 853 b -212 949 -151 922 -176 949 b -272 888 -249 949 -272 922 "},"̃":{"ha":0,"x_min":0,"x_max":0,"o":"m -482 931 b -379 989 -457 964 -428 989 b -282 922 -339 989 -314 969 b -232 881 -262 893 -253 881 b -189 910 -211 881 -201 892 l -144 972 l -74 921 l -131 843 b -232 785 -154 810 -183 785 b -329 850 -272 785 -297 804 b -379 893 -350 879 -358 893 b -424 863 -401 893 -410 882 l -468 801 l -537 853 "},"̄":{"ha":0,"x_min":0,"x_max":0,"o":"m -74 792 l -465 792 l -465 881 l -74 881 "},"̒":{"ha":0,"x_min":0,"x_max":0,"o":"m -74 890 b -169 794 -74 833 -114 794 b -265 889 -225 794 -265 833 l -265 1015 b -160 1117 -265 1078 -222 1117 l -78 1117 l -78 1051 l -153 1051 b -192 1015 -179 1051 -192 1040 l -192 979 b -167 982 -186 981 -179 982 b -74 890 -114 982 -74 943 "},"̦":{"ha":0,"x_min":0,"x_max":0,"o":"m -265 -165 b -169 -69 -265 -110 -225 -69 b -74 -165 -114 -69 -74 -110 l -74 -290 b -179 -393 -74 -354 -117 -393 l -261 -393 l -261 -328 l -186 -328 b -147 -290 -160 -328 -147 -315 l -147 -256 b -172 -258 -153 -257 -160 -258 b -265 -165 -225 -258 -265 -218 "},"̧":{"ha":0,"x_min":0,"x_max":0,"o":"m -235 44 l -260 -85 l -251 -85 b -182 -57 -239 -71 -217 -57 b -74 -171 -124 -57 -74 -97 b -206 -296 -74 -249 -129 -296 b -331 -226 -268 -296 -307 -272 l -278 -175 b -210 -224 -268 -204 -244 -224 b -154 -169 -179 -224 -154 -203 b -203 -119 -154 -137 -174 -119 b -243 -137 -221 -119 -232 -125 l -343 -137 l -343 -129 l -307 44 "},"̨":{"ha":0,"x_min":0,"x_max":0,"o":"m -139 15 l -161 -90 b -164 -118 -162 -104 -164 -108 b -133 -146 -164 -136 -154 -146 l -74 -146 l -74 -228 l -153 -228 b -251 -135 -210 -228 -251 -196 b -243 -74 -251 -115 -247 -96 l -222 31 "},"̵":{"ha":0,"x_min":0,"x_max":0,"o":"m -74 871 l -74 792 l -467 792 l -467 871 "},"̶":{"ha":0,"x_min":0,"x_max":0,"o":"m -74 701 l -926 701 l -926 794 l -74 794 "},"̷":{"ha":0,"x_min":0,"x_max":0,"o":"m -74 743 l -371 -106 l -465 -72 l -167 775 "},"̸":{"ha":0,"x_min":0,"x_max":0,"o":"m -74 1044 l -457 -119 l -554 -89 l -168 1075 "},"´":{"ha":367,"x_min":0,"x_max":0,"o":"m 289 972 l 182 792 l 79 792 l 158 972 "},"˘":{"ha":472,"x_min":0,"x_max":0,"o":"m 399 972 l 399 938 b 236 781 399 839 332 781 b 74 938 140 781 74 839 l 74 972 l 161 972 l 161 944 b 236 867 161 899 186 867 b 311 944 286 867 311 899 l 311 972 "},"ˇ":{"ha":558,"x_min":0,"x_max":0,"o":"m 485 972 l 347 792 l 211 792 l 74 972 l 189 972 l 272 860 l 286 860 l 369 972 "},"¸":{"ha":417,"x_min":0,"x_max":0,"o":"m 182 44 l 157 -85 l 165 -85 b 235 -57 178 -71 200 -57 b 343 -171 293 -57 343 -97 b 211 -296 343 -249 288 -296 b 86 -226 149 -296 110 -272 l 139 -175 b 207 -224 149 -204 172 -224 b 263 -169 238 -224 263 -203 b 214 -119 263 -137 243 -119 b 174 -137 196 -119 185 -125 l 74 -137 l 74 -129 l 110 44 "},"ˆ":{"ha":558,"x_min":0,"x_max":0,"o":"m 286 904 l 272 904 l 189 792 l 74 792 l 211 972 l 347 972 l 485 792 l 369 792 "},"¨":{"ha":572,"x_min":0,"x_max":0,"o":"m 74 890 b 163 978 74 940 111 978 b 253 890 214 978 253 940 b 163 801 253 839 214 801 b 74 890 111 801 74 839 m 321 890 b 410 978 321 940 358 978 b 499 890 461 978 499 940 b 410 801 499 839 461 801 b 321 890 358 801 321 839 "},"˙":{"ha":326,"x_min":0,"x_max":0,"o":"m 74 890 b 163 978 74 940 111 978 b 253 890 214 978 253 940 b 163 801 253 839 214 801 b 74 890 111 801 74 839 "},"`":{"ha":367,"x_min":0,"x_max":0,"o":"m 293 792 l 189 792 l 74 972 l 201 972 "},"˝":{"ha":544,"x_min":0,"x_max":0,"o":"m 290 972 l 175 792 l 74 792 l 165 972 m 471 972 l 356 792 l 254 792 l 346 972 "},"¯":{"ha":539,"x_min":0,"x_max":0,"o":"m 465 792 l 74 792 l 74 881 l 465 881 "},"˛":{"ha":325,"x_min":0,"x_max":0,"o":"m 186 15 l 164 -90 b 161 -118 163 -104 161 -108 b 192 -146 161 -136 171 -146 l 251 -146 l 251 -228 l 172 -228 b 74 -135 115 -228 74 -196 b 82 -74 74 -115 78 -96 l 103 31 "},"˚":{"ha":425,"x_min":0,"x_max":0,"o":"m 74 888 b 213 1022 74 965 133 1022 b 351 888 292 1022 351 965 b 213 753 351 808 290 753 b 74 888 135 753 74 810 m 153 888 b 213 826 153 853 176 826 b 274 888 249 826 274 853 b 213 949 274 922 249 949 b 153 888 176 949 153 922 "},"˜":{"ha":611,"x_min":0,"x_max":0,"o":"m 129 931 b 232 989 154 964 183 989 b 329 922 272 989 297 969 b 379 881 349 893 358 881 b 422 910 400 881 410 892 l 467 972 l 538 921 l 481 843 b 379 785 457 810 428 785 b 282 850 339 785 314 804 b 232 893 261 879 253 893 b 188 863 210 893 201 882 l 143 801 l 74 853 "},"":{"ha":626,"x_min":0,"x_max":0,"o":"m 290 972 l 183 792 l 81 792 l 160 972 m 608 972 l 501 792 l 399 792 l 478 972 m 208 0 l 101 0 l 101 678 l 208 678 m 525 -172 b 419 -278 525 -236 483 -278 l 246 -278 l 246 -186 l 381 -186 b 419 -144 406 -186 419 -172 l 419 678 l 525 678 "},"":{"ha":806,"x_min":0,"x_max":0,"o":"m 300 1222 l 185 1065 l 81 1065 l 169 1222 m 788 1222 l 672 1065 l 568 1065 l 657 1222 m 217 972 l 217 504 l 104 504 l 104 972 m 706 972 l 706 292 b 413 -19 706 90 604 -19 b 104 292 222 -19 104 90 l 104 325 l 217 325 l 217 292 b 413 85 217 168 282 85 b 593 292 544 85 593 168 l 593 972 "}}}
